<svg width="160" height="61" viewBox="0 0 160 61" fill="none" xmlns="http://www.w3.org/2000/svg">
<path d="M16.6022 35.4671C16.2634 35.4484 15.9375 35.3309 15.6647 35.1291C15.3919 34.9272 15.1842 34.6499 15.0673 34.3314C14.9504 34.0128 14.9293 33.667 15.0067 33.3366C15.0842 33.0063 15.2567 32.7058 15.5029 32.4724C15.7492 32.2389 16.0585 32.0828 16.3925 32.0231C16.7265 31.9635 17.0707 32.003 17.3826 32.1368C17.6944 32.2706 17.9602 32.4928 18.1472 32.776C18.3341 33.0592 18.434 33.3909 18.4345 33.7303C18.4209 34.2032 18.2204 34.6515 17.877 34.977C17.5336 35.3025 17.0752 35.4787 16.6022 35.4671Z" fill="url(#paint0_linear_721_70949)"/>
<path d="M15.4211 37.3507H19.8238C20.3405 37.3602 20.8533 37.2607 21.3288 37.0585C21.8043 36.8563 22.2318 36.5561 22.5834 36.1775C22.935 35.7989 23.2028 35.3503 23.3692 34.8611C23.5356 34.372 23.597 33.8532 23.5493 33.3387C23.5535 33.2867 23.5535 33.2344 23.5493 33.1824C23.4325 32.3644 23.0677 31.602 22.504 30.9979C21.9403 30.3939 21.2049 29.9773 20.397 29.8043H17.1579V29.8651H15.6295C15.086 29.8651 14.5647 29.6492 14.1803 29.2648C13.796 28.8805 13.5801 28.3592 13.5801 27.8157V21.4764C13.5801 21.2415 13.6263 21.0089 13.7162 20.7918C13.8061 20.5748 13.9379 20.3776 14.104 20.2115C14.2701 20.0453 14.4674 19.9136 14.6844 19.8237C14.9014 19.7338 15.1341 19.6875 15.369 19.6875C15.6039 19.6875 15.8365 19.7338 16.0536 19.8237C16.2706 19.9136 16.4678 20.0453 16.6339 20.2115C16.8 20.3776 16.9318 20.5748 17.0217 20.7918C17.1116 21.0089 17.1579 21.2415 17.1579 21.4764V27.0949C18.582 26.5912 23.3495 25.3581 25.9981 29.622C26.6296 30.6278 27.0262 31.763 27.1585 32.9432C27.2908 34.1234 27.1554 35.3182 26.7623 36.4389C26.4533 37.3489 25.9431 38.1776 25.2695 38.8632C24.5959 39.5488 23.7764 40.0737 22.8719 40.3987C22.0009 40.715 21.0805 40.8737 20.1538 40.8677H15.4211C14.9605 40.8677 14.5187 40.6847 14.193 40.359C13.8673 40.0333 13.6843 39.5915 13.6843 39.1309C13.6843 38.6703 13.8673 38.2285 14.193 37.9028C14.5187 37.5771 14.9605 37.3941 15.4211 37.3941V37.3507Z" fill="url(#paint1_linear_721_70949)"/>
<path d="M36.9497 30.6805C36.9523 34.332 35.8545 37.8995 33.7995 40.9178C31.7444 43.936 28.8275 46.265 25.4292 47.6009C22.0309 48.9368 18.3089 49.2176 14.7486 48.4067C11.1883 47.5959 7.95499 45.7309 5.47034 43.0552C5.3124 42.8841 5.18969 42.6836 5.10923 42.4651C5.02877 42.2466 4.99213 42.0145 5.00141 41.7818C5.01068 41.5492 5.06568 41.3206 5.16328 41.1093C5.26088 40.8979 5.39915 40.7078 5.57021 40.5498C5.74127 40.3919 5.94176 40.2692 6.16024 40.1887C6.37872 40.1083 6.61091 40.0716 6.84355 40.0809C7.07619 40.0902 7.30473 40.1452 7.51611 40.2428C7.7275 40.3404 7.91759 40.4786 8.07553 40.6497C10.075 42.7994 12.6751 44.2975 15.5377 44.9492C18.4002 45.6008 21.3926 45.3757 24.1255 44.3033C26.8584 43.2309 29.2053 41.3608 30.8607 38.9362C32.5162 36.5117 33.4035 33.645 33.4074 30.7092C33.4112 27.7735 32.5313 24.9045 30.8822 22.4756C29.2331 20.0468 26.8912 18.1705 24.1611 17.091C21.431 16.0114 18.4392 15.7786 15.5749 16.4227C12.7107 17.0669 10.1066 18.5582 8.10158 20.7026C7.77684 21.0481 7.32816 21.2504 6.85425 21.2651C6.38034 21.2797 5.92002 21.1055 5.57455 20.7808C5.22908 20.4561 5.02676 20.0074 5.01211 19.5335C4.99745 19.0596 5.17165 18.5992 5.4964 18.2538C7.98585 15.5841 11.2218 13.7263 14.7824 12.9225C18.3431 12.1187 22.0633 12.4062 25.4583 13.7474C28.8532 15.0887 31.7653 17.4216 33.815 20.442C35.8648 23.4624 36.9572 27.0303 36.9497 30.6805Z" fill="url(#paint2_linear_721_70949)"/>
<path d="M54.3521 23.6279C53.391 23.5254 52.4195 23.6594 51.522 24.0181C50.6244 24.3768 49.8282 24.9494 49.2025 25.686V20.2325C49.1956 19.689 48.9731 19.1704 48.5838 18.791C48.3911 18.6031 48.1633 18.455 47.9133 18.3552C47.6633 18.2554 47.3962 18.2057 47.127 18.2091C46.5835 18.2161 46.065 18.4386 45.6855 18.8278C45.3061 19.2171 45.0968 19.7411 45.1037 20.2846V38.2778C45.1025 38.5533 45.1558 38.8264 45.2605 39.0813C45.3652 39.3363 45.5191 39.568 45.7136 39.7633C45.908 39.9585 46.1391 40.1134 46.3936 40.2192C46.6481 40.3249 46.9209 40.3793 47.1965 40.3793C47.7332 40.3702 48.2447 40.15 48.6202 39.7663C48.9957 39.3827 49.2049 38.8667 49.2025 38.3299V37.9738C49.8018 38.634 50.5342 39.1596 51.3515 39.5159C52.1688 39.8721 53.0524 40.051 53.944 40.0406C60.2485 40.0406 60.8216 32.7287 60.8216 32.7287C61.1169 24.1056 54.3521 23.6279 54.3521 23.6279ZM52.6848 36.8623C51.0175 36.8623 49.6107 35.2818 49.2112 33.1369V30.5317C49.6193 28.3868 51.0261 26.8063 52.6848 26.8063C54.6821 26.8063 56.2973 29.0554 56.2973 31.8343C56.2973 34.6132 54.6821 36.8623 52.6848 36.8623Z" fill="white"/>
<path d="M66.5785 31.8606V32.043C66.5785 34.6047 68.159 36.6715 70.0521 36.8192H70.2431C70.3946 36.8292 70.5439 36.8614 70.686 36.9147C71.0176 37.0162 71.309 37.2191 71.5193 37.4948C71.7296 37.7705 71.8481 38.1051 71.8584 38.4517C71.8527 38.7761 71.7506 39.0913 71.565 39.3574C71.3794 39.6234 71.1187 39.8281 70.8163 39.9454C70.5798 40.0442 70.3258 40.0944 70.0695 40.093H69.9218C67.8624 39.966 65.9273 39.0646 64.505 37.5698C63.0827 36.075 62.2785 34.0975 62.2539 32.0343V31.7911C62.2825 29.7292 63.0881 27.7539 64.5096 26.26C65.9311 24.7661 67.8639 23.8634 69.9218 23.7324H70.0695C70.3248 23.7324 70.578 23.7795 70.8163 23.8714C71.1181 23.9896 71.3781 24.1946 71.5635 24.4604C71.749 24.7262 71.8516 25.041 71.8584 25.365C71.8486 25.7128 71.7304 26.0488 71.5202 26.3259C71.3099 26.6031 71.0183 26.8076 70.686 26.9108C70.5427 26.96 70.394 26.992 70.2431 27.0063H70.0521C69.5645 27.0689 69.0962 27.2363 68.6794 27.4972C68.2627 27.758 67.9074 28.106 67.638 28.5173C66.9555 29.4791 66.5883 30.6291 66.5872 31.8085C66.5812 31.8156 66.5773 31.8242 66.5758 31.8334C66.5742 31.8425 66.5752 31.8519 66.5785 31.8606Z" fill="white"/>
<path d="M82.3052 23.768C80.6532 23.7283 79.0269 24.182 77.6341 25.0711C76.2412 25.9601 75.145 27.2443 74.4855 28.7594C73.826 30.2746 73.6331 31.9519 73.9316 33.5772C74.2301 35.2024 75.0063 36.7018 76.161 37.8838C77.3158 39.0658 78.7967 39.8767 80.4146 40.2129C82.0325 40.5491 83.7139 40.3954 85.244 39.7713C86.774 39.1473 88.0833 38.0813 89.0046 36.7094C89.9259 35.3376 90.4173 33.7223 90.416 32.0699C90.4369 29.8947 89.5951 27.7999 88.075 26.244C86.5549 24.6881 84.4803 23.7978 82.3052 23.768ZM82.3052 36.8634C80.2124 36.8634 78.519 34.6664 78.519 31.957C78.519 29.2476 80.2558 27.0506 82.3052 27.0506C84.3546 27.0506 86.074 29.2476 86.074 31.9917C86.074 34.7359 84.4067 36.8634 82.3052 36.8634Z" fill="white"/>
<path d="M102.218 31.8263V32.0694C102.196 34.1333 101.392 36.1119 99.9695 37.6071C98.5468 39.1023 96.6105 40.0031 94.5503 40.1282H94.4027C94.1465 40.1279 93.8929 40.0778 93.6559 39.9805C93.3372 39.8665 93.0631 39.6537 92.8738 39.3731C92.6845 39.0925 92.5897 38.7588 92.6032 38.4205C92.6168 38.0823 92.738 37.7572 92.9492 37.4927C93.1605 37.2281 93.4506 37.0379 93.7775 36.9498C93.9226 36.8965 94.0747 36.8644 94.229 36.8543H94.4201C96.3479 36.7067 97.8937 34.6399 97.9371 32.0781V31.861C97.9402 30.6635 97.5699 29.4948 96.8776 28.5177C96.5957 28.1099 96.2298 27.7671 95.8044 27.5125C95.379 27.2579 94.904 27.0972 94.4114 27.0414H94.2203C94.0666 27.0272 93.9151 26.9952 93.7688 26.9459C93.443 26.8552 93.1545 26.6635 92.9446 26.3984C92.7347 26.1332 92.6144 25.8084 92.6009 25.4705C92.5874 25.1326 92.6814 24.7992 92.8694 24.5182C93.0574 24.2371 93.3298 24.023 93.6472 23.9065C93.8859 23.8163 94.1388 23.7693 94.394 23.7676H94.5417C96.6019 23.8945 98.538 24.7956 99.9617 26.2902C101.385 27.7848 102.191 29.7623 102.218 31.8263Z" fill="white"/>
<path d="M117.424 25.4784C118.49 26.6382 119.08 28.1579 119.074 29.7335V38.5911C119.075 38.8659 119.022 39.1381 118.917 39.3921C118.812 39.646 118.658 39.8766 118.463 40.0705C118.268 40.2644 118.037 40.4177 117.783 40.5215C117.528 40.6253 117.256 40.6776 116.981 40.6753C116.446 40.6662 115.936 40.4472 115.56 40.0654C115.185 39.6837 114.975 39.1698 114.975 38.6346V29.6553C114.975 29.6553 114.888 27.2065 111.771 26.9025C111.473 26.9024 111.179 26.9584 110.902 27.0675C110.324 27.2821 109.826 27.67 109.476 28.1782C109.126 28.6865 108.942 29.2903 108.948 29.9072V38.6432C108.948 38.9101 108.896 39.1743 108.794 39.4209C108.691 39.6674 108.542 39.8914 108.353 40.0801C108.164 40.2688 107.94 40.4185 107.694 40.5206C107.447 40.6227 107.183 40.6753 106.916 40.6753C106.642 40.6753 106.37 40.6211 106.117 40.5158C105.863 40.4105 105.633 40.2562 105.439 40.0618C105.246 39.8673 105.092 39.6366 104.988 39.3827C104.884 39.1288 104.831 38.8569 104.832 38.5824V25.1657C104.832 24.6305 105.042 24.1166 105.417 23.7349C105.793 23.3531 106.303 23.1341 106.838 23.125C107.112 23.125 107.383 23.1792 107.636 23.2846C107.889 23.39 108.119 23.5444 108.312 23.739C108.505 23.9336 108.657 24.1644 108.761 24.4183C108.864 24.6721 108.916 24.9438 108.914 25.2178V25.3741C109.723 24.6404 110.705 24.1253 111.769 23.8776C112.833 23.6299 113.942 23.6578 114.992 23.9587C115.192 24.0108 115.4 24.0716 115.618 24.1497C116.312 24.4518 116.929 24.9058 117.424 25.4784Z" fill="white"/>
<path d="M134.957 23.508C134.421 23.5124 133.909 23.7252 133.528 24.1014C133.147 24.4775 132.927 24.9874 132.916 25.5227V25.9134C132.298 25.2658 131.554 24.7514 130.729 24.4019C129.905 24.0525 129.018 23.8753 128.123 23.8814C126.787 23.8508 125.475 24.2353 124.368 24.9819C123.261 25.7285 122.412 26.8004 121.94 28.0497C121.129 29.9196 120.917 31.9943 121.332 33.9895C121.59 35.5479 122.35 36.9795 123.495 38.0671C124.641 39.1548 126.11 39.8391 127.68 40.0162C128.647 40.1193 129.626 39.9886 130.532 39.635C131.439 39.2813 132.248 38.7152 132.89 37.9841V38.7918C132.891 39.9138 132.457 40.9927 131.68 41.8022C130.903 42.6117 129.843 43.0889 128.722 43.1337H128.522C128.522 43.1337 126.612 43.2119 125.048 40.9106C124.908 40.7001 124.721 40.5251 124.501 40.3995C124.281 40.2738 124.035 40.201 123.783 40.1867C123.53 40.1724 123.278 40.217 123.045 40.317C122.813 40.417 122.607 40.5697 122.443 40.763V40.8064C122.409 40.8554 122.38 40.9078 122.356 40.9627C122.15 41.415 122.086 41.919 122.171 42.4087C122.256 42.8984 122.487 43.3509 122.834 43.7069C123.639 44.644 124.649 45.3823 125.787 45.8644C126.924 46.3464 128.157 46.5591 129.39 46.4857C130.978 46.4063 132.514 45.8992 133.837 45.0182C134.873 44.3091 135.71 43.3464 136.268 42.2219C136.808 41.1162 137.084 39.9005 137.076 38.6702V25.6442C137.082 25.3636 137.031 25.0846 136.927 24.8239C136.823 24.5632 136.667 24.3262 136.469 24.1268C136.272 23.9275 136.036 23.77 135.776 23.6637C135.516 23.5574 135.238 23.5044 134.957 23.508ZM132.916 33.1819C132.499 35.2921 131.066 36.8465 129.373 36.8465C127.341 36.8465 125.7 34.6321 125.7 31.9054C125.7 29.1786 127.341 26.9642 129.373 26.9642C131.066 26.9642 132.499 28.5186 132.916 30.6288C133.078 31.4721 133.078 32.3386 132.916 33.1819Z" fill="white"/>
<path d="M146.863 23.7674C145.212 23.7329 143.588 24.1911 142.199 25.0834C140.809 25.9757 139.717 27.2618 139.062 28.7775C138.406 30.2932 138.217 31.9698 138.519 33.5934C138.82 35.217 139.598 36.714 140.754 37.8933C141.91 39.0727 143.391 39.8809 145.009 40.215C146.626 40.549 148.306 40.3936 149.834 39.7687C151.363 39.1438 152.671 38.0776 153.591 36.7063C154.511 35.335 155.001 33.7207 155 32.0693C155.021 29.8897 154.176 27.791 152.65 26.2343C151.124 24.6776 149.043 23.7904 146.863 23.7674ZM146.863 36.8629C144.77 36.8629 143.077 34.6658 143.077 31.9564C143.077 29.247 144.814 27.05 146.863 27.05C148.913 27.05 150.658 29.247 150.658 31.9564C150.658 34.6658 148.956 36.8629 146.863 36.8629Z" fill="white"/>
<defs>
<linearGradient id="paint0_linear_721_70949" x1="14.7786" y1="33.6868" x2="18.4432" y2="33.6868" gradientUnits="userSpaceOnUse">
<stop stop-color="#58F497"/>
<stop offset="0.48" stop-color="#2EF9B9"/>
<stop offset="1" stop-color="#01FEDC"/>
</linearGradient>
<linearGradient id="paint1_linear_721_70949" x1="13.5801" y1="30.2732" x2="27.2139" y2="30.2732" gradientUnits="userSpaceOnUse">
<stop stop-color="#58F497"/>
<stop offset="0.48" stop-color="#2EF9B9"/>
<stop offset="1" stop-color="#01FEDC"/>
</linearGradient>
<linearGradient id="paint2_linear_721_70949" x1="5.00141" y1="30.6892" x2="36.9497" y2="30.6892" gradientUnits="userSpaceOnUse">
<stop stop-color="#58F497"/>
<stop offset="0.48" stop-color="#2EF9B9"/>
<stop offset="1" stop-color="#01FEDC"/>
</linearGradient>
</defs>
</svg>
