<?xml version="1.0" encoding="utf-8"?>
<!-- Generator: Adobe Illustrator 16.0.0, SVG Export Plug-In . SVG Version: 6.00 Build 0)  -->
<!DOCTYPE svg PUBLIC "-//W3C//DTD SVG 1.1//EN" "http://www.w3.org/Graphics/SVG/1.1/DTD/svg11.dtd">
<svg version="1.1" id="Layer_1" xmlns="http://www.w3.org/2000/svg" xmlns:xlink="http://www.w3.org/1999/xlink" x="0px" y="0px"
	 width="290px" height="290px" viewBox="0 0 290 290" enable-background="new 0 0 290 290" xml:space="preserve" preserveAspectRatio="none slice">
<circle fill="#FFFFFF" stroke="#000000" stroke-width="3" stroke-miterlimit="10" cx="145.693" cy="145.192" r="142.284"/>
<g>
	<g>
		<path fill="none" stroke="#000000" stroke-width="4" stroke-miterlimit="10" d="M203.065,14.956
			c-1.589,1.099-3.22,2.257-4.89,3.472"/>
		<path fill="none" stroke="#000000" stroke-width="4" stroke-miterlimit="10" stroke-dasharray="11.9972,5.9986" d="
			M193.358,22.001C136.517,64.977,41.16,164.116,22.026,201.255"/>
		<path fill="none" stroke="#000000" stroke-width="4" stroke-miterlimit="10" d="M20.719,203.958
			c-0.97,2.166-1.618,4.067-1.913,5.673"/>
	</g>
</g>
<g>
	<g>
		<path fill="none" stroke="#000000" stroke-width="4" stroke-miterlimit="10" d="M217.826,24.716
			c-1.584,1.108-3.209,2.274-4.873,3.495"/>
		<path fill="none" stroke="#000000" stroke-width="4" stroke-miterlimit="10" stroke-dasharray="12.3762,6.1881" d="
			M208.002,31.921C149.696,76.444,51.672,179.474,32.286,217.805"/>
		<path fill="none" stroke="#000000" stroke-width="4" stroke-miterlimit="10" d="M30.961,220.602
			c-0.948,2.165-1.583,4.07-1.877,5.686"/>
	</g>
</g>
<g>
	<g>
		<path fill="none" stroke="#000000" stroke-width="4" stroke-miterlimit="10" d="M242.512,40.932
			c-1.581,1.119-3.201,2.292-4.856,3.518"/>
		<path fill="none" stroke="#000000" stroke-width="4" stroke-miterlimit="10" stroke-dasharray="11.9382,5.9691" d="
			M232.891,48.042C172.857,94.104,72.909,199.518,52.463,241.412"/>
		<path fill="none" stroke="#000000" stroke-width="4" stroke-miterlimit="10" d="M51.213,244.124
			c-0.898,2.08-1.563,3.973-1.975,5.657"/>
	</g>
</g>
<g>
	<g>
		<path fill="none" stroke="#000000" stroke-width="4" stroke-miterlimit="10" d="M253.075,51.568
			c-1.592,1.11-3.221,2.271-4.882,3.481"/>
		<path fill="none" stroke="#000000" stroke-width="4" stroke-miterlimit="10" stroke-dasharray="11.8799,5.94" d="M243.424,58.588
			C183.153,104.082,84.976,206.41,62.615,249.835"/>
		<path fill="none" stroke="#000000" stroke-width="4" stroke-miterlimit="10" d="M61.302,252.503
			c-0.938,2.006-1.687,3.864-2.234,5.561"/>
	</g>
</g>
<path fill="none" stroke="#000000" stroke-width="4" stroke-miterlimit="10" d="M229.613,30.503
	C167.495,74.333,42.99,206.833,37.456,237.537"/>
</svg>
