<?xml version="1.0" encoding="utf-8"?>
<!-- Generator: Adobe Illustrator 16.0.0, SVG Export Plug-In . SVG Version: 6.00 Build 0)  -->
<!DOCTYPE svg PUBLIC "-//W3C//DTD SVG 1.1//EN" "http://www.w3.org/Graphics/SVG/1.1/DTD/svg11.dtd">
<svg version="1.1" id="Layer_1" xmlns="http://www.w3.org/2000/svg" xmlns:xlink="http://www.w3.org/1999/xlink" x="0px" y="0px"
	 width="50px" height="83px" viewBox="0 0 50 83" enable-background="new 0 0 50 83" xml:space="preserve" preserveAspectRatio="none slice">
<path display="none" fill="#FFFFFF" stroke="#BFBFBF" stroke-width="0.4919" stroke-miterlimit="10" d="M36.632,44.298
	c1.044,8.021,2.071,15.918,3.108,23.877c-4.057,0-8.018,0-12.029,0c-0.85-3.547-1.322-7.146-2.249-10.635
	c-0.121,0.01-0.245,0.019-0.367,0.026c-0.741,3.502-1.481,7.006-2.238,10.593c-4.209,0-8.417,0-12.748,0
	c1.084-7.943,2.167-15.878,3.256-23.861C21.145,44.298,28.852,44.298,36.632,44.298z"/>
<g>
	<g id="layer1" transform="translate(618.49824,260.0978)">
		<path id="rect2253" fill="#FFFFFF" stroke="#000000" stroke-width="0.1175" stroke-linecap="round" stroke-linejoin="round" d="
			M-595.251-231.708l7.806-0.566l6.15,4.839l-14.269,46.596c-0.691-0.211-4.914,1.005-7.681,0.158
			c-2.704-0.828-5.27-4.123-6.275-4.431L-595.251-231.708z"/>
		<path id="rect2256" fill="#FFFFFF" stroke="#000000" stroke-width="0.1175" stroke-linecap="round" stroke-linejoin="round" d="
			M-582.482-256.986l4.76,1.458l-7.626,24.904l-5.947,10.921l1.188-12.379L-582.482-256.986z"/>
		<path id="path2261" fill="#FFFFFF" stroke="#000000" stroke-width="0.0953" stroke-linecap="round" stroke-linejoin="round" d="
			M-577.723-255.526c-0.199,0.654-1.426,0.858-2.741,0.456c-1.314-0.402-2.218-1.258-2.019-1.911c0,0,0-0.001,0-0.002
			c0.199-0.653,1.427-0.857,2.741-0.455c1.314,0.402,2.218,1.258,2.019,1.911C-577.723-255.527-577.723-255.527-577.723-255.526z"/>
	</g>
</g>
</svg>
