<svg width="165" height="112" viewBox="0 0 165 112" fill="none" xmlns="http://www.w3.org/2000/svg">
<rect x="0.167969" y="0.505859" width="164.319" height="111.403" rx="6" fill="white"/>
<path fill-rule="evenodd" clip-rule="evenodd" d="M11.3047 64.6943H19.3499C19.6742 63.7407 20.0952 61.8124 20.3721 60.7572L22.071 54.243C22.1203 54.1491 22.0864 54.2061 22.1241 54.1654C22.298 54.6768 24.4425 58.7978 24.7662 59.4632L26.4171 62.7414C26.5339 62.9818 26.6206 63.1905 26.7524 63.4239L27.2488 64.4143C27.308 64.5429 27.3167 64.6943 27.5058 64.6943H56.2465C56.26 64.2807 58.5179 56.367 58.8542 54.9636C59.0706 54.0608 59.468 52.5004 59.742 51.6947H64.1806C64.1806 52.0605 63.4441 54.5084 63.3331 54.9532L62.4558 58.1911C61.9852 59.8098 61.6309 61.4269 61.152 63.0375C61.0335 63.4363 60.7405 64.326 60.7405 64.6942H136.587C136.587 64.2781 137.475 61.3583 137.641 60.665L138.45 57.6461C138.502 57.4468 138.541 57.311 138.584 57.13C138.631 56.9379 138.695 56.8188 138.695 56.5979H138.806C138.844 56.91 139.089 57.3013 139.218 57.6082L141.421 62.6749C141.578 63.0217 142.111 64.421 142.302 64.6942H150.347C150.256 64.4248 150.044 64.1073 149.91 63.8535C149.761 63.5716 149.602 63.308 149.453 63.0261C149.138 62.4306 146.822 58.3678 146.685 57.9664C147.363 57.9561 148.832 57.6128 149.386 57.4217C149.825 57.2699 150.088 57.1795 150.481 56.9937C150.776 56.8542 151.221 56.6213 151.434 56.4303C151.695 56.1957 151.965 56.0163 152.19 55.7701C152.429 55.5085 152.611 55.248 152.781 54.9582C153.208 54.2289 153.344 53.3958 153.344 52.493C153.344 49.9079 150.461 48.6403 147.161 48.1377C146.061 47.9702 144.66 47.8557 143.356 47.8557H133.314C133.087 47.8557 133.031 48.4059 132.988 48.583C132.519 50.5163 131.954 52.3781 131.451 54.2955L130.136 59.2103C130.017 59.6864 129.724 60.363 129.707 60.8553H117.39C117.44 60.7835 118.167 58.0987 118.167 57.9285H125.602C125.886 57.0921 126.17 55.8945 126.386 55.0068C126.418 54.8765 126.485 54.7299 126.489 54.5835H119.11C119.11 54.2051 119.529 52.8986 119.661 52.452C119.724 52.2351 119.831 51.9276 119.831 51.6948H127.377C127.605 51.6948 127.68 51.0306 127.742 50.8045C128.009 49.8349 128.221 48.8013 128.542 47.8557H112.951C112.951 48.1753 112.255 50.5719 112.152 50.9187C111.996 51.4422 111.883 51.9541 111.735 52.4578L110.495 57.0817C110.387 57.5117 109.689 59.8234 109.678 60.171H104.019C104.019 59.9362 106.376 51.3644 106.501 50.9246C106.651 50.3978 106.786 49.9175 106.919 49.3864C106.983 49.1299 107.225 48.0303 107.348 47.8555H99.1916C98.8409 48.8867 98.2527 51.3044 97.9476 52.4767C97.8124 52.9964 97.678 53.5136 97.5324 54.0167L96.2831 58.6344C96.1394 59.1634 96.0312 59.6755 95.8627 60.171H90.3698C90.3791 59.8846 91.5023 55.9558 91.6138 55.5497L92.8618 50.9311C93.154 49.9263 93.3592 48.8546 93.6988 47.8556H85.5428C85.5319 48.1888 83.1287 56.7781 82.935 57.5863C82.7154 58.503 82.3287 60.028 82.0473 60.8552H69.6745L70.0628 59.4107C70.1752 58.942 70.3941 58.3989 70.4512 57.9283C71.2197 57.9283 77.4876 57.9708 77.7751 57.9283C78.0189 57.8923 77.9756 57.6947 78.0206 57.5263L78.6577 55.1119C78.705 54.9486 78.7739 54.8029 78.7739 54.6213L71.3391 54.5834C71.4323 54.4502 72.109 51.9046 72.1158 51.6946H79.717C79.9612 51.6946 80.0635 50.9572 80.0979 50.8152L80.6191 48.8536C80.7062 48.5477 80.7758 48.1684 80.8822 47.8555H32.4447C32.4447 48.2115 32.2347 48.7634 32.1352 49.1258C31.4407 51.654 30.8085 54.3532 30.0726 56.8353L29.8149 57.799C29.767 57.9902 29.8403 57.9951 29.6707 58.0803C29.6293 57.7395 25.2881 49.8959 24.6149 48.5064C24.5126 48.2953 24.3686 48.0898 24.2888 47.8555H15.7997C15.7886 48.1978 14.5599 52.4585 14.4052 53.0959L13.5484 56.2719C13.2801 57.2942 11.3056 64.3429 11.3056 64.6942L11.3047 64.6943ZM145.442 53.5115C145.021 55.9568 141.852 55.8318 138.943 55.8131L140.143 51.2982C142.424 51.2773 145.642 51.2987 145.442 53.5115ZM38.6471 54.6101L39.4128 51.6681H51.6969L49.2002 60.8818H36.8828L37.7151 57.8942H45.4717L46.3373 54.6101H38.6472H38.6471Z" fill="#82B93B"/>
</svg>
