<svg width="165" height="112" viewBox="0 0 165 112" fill="none" xmlns="http://www.w3.org/2000/svg">
<rect x="0.507812" y="0.253906" width="164.319" height="111.403" rx="6" fill="white"/>
<path fill-rule="evenodd" clip-rule="evenodd" d="M107.099 36.459C104.442 36.459 102.284 38.5812 102.284 41.1975C102.284 43.8153 104.442 45.9329 107.099 45.9329C109.76 45.9329 111.916 43.8153 111.916 41.1975C111.916 38.5812 109.76 36.459 107.099 36.459ZM37.6441 52.3344C36.4096 52.2559 33.5494 52.0728 33.5494 49.5412C33.5494 46.4863 37.6645 46.4863 39.2088 46.4863C41.9251 46.4863 45.4394 47.2743 47.9523 48.0145C47.9523 48.0145 49.3511 48.5008 50.5418 48.9964L50.6529 49.0271V40.6598L50.5043 40.6151C47.5376 39.5948 44.0938 38.6145 37.7052 38.6145C26.6914 38.6145 22.7891 44.9227 22.7891 50.3322C22.7891 53.4471 24.1472 60.7849 36.757 61.6298L36.7687 61.6305C37.8493 61.6956 40.6671 61.8654 40.6671 64.4722C40.6671 66.633 38.3436 67.9041 34.4366 67.9041C30.1556 67.9041 25.9998 66.833 23.4775 65.8127V74.4278C27.2547 75.4051 31.5137 75.8883 36.5051 75.8883C47.2701 75.8883 52.0955 69.9187 52.0955 63.9998C52.0955 57.2914 46.699 52.9315 37.6441 52.3344ZM70.1543 48.6156L70.1545 48.6152C70.1753 48.5613 70.1918 48.5189 70.2039 48.4885H81.7357C81.4071 49.5212 79.3495 55.7524 74.6586 61.6036C74.6586 61.6036 79.8831 70.6081 81.0769 75.4928H69.0023C69.0023 75.4928 67.5596 69.0076 64.6399 64.6985V75.4928H54.5571V40.5767L64.6399 38.6145V57.8793C68.2126 53.6291 69.8045 49.5187 70.1543 48.6156ZM130.384 75.4928V40.3335L140.155 38.6145V75.4928H130.384ZM96.7077 48.1249C87.681 48.4112 83.0949 52.3971 83.0949 60.3197V75.494H92.9462V63.1176C92.9462 58.376 93.5783 56.343 99.3004 56.1491V48.265C98.3381 48.0634 96.7077 48.1249 96.7077 48.1249ZM102.218 75.4919V48.5184H111.988V75.4919H102.218ZM116.124 40.3335L125.889 38.6145V75.4928H116.124V40.3335Z" fill="#862165"/>
</svg>
