<?xml version="1.0" encoding="utf-8"?>
<!-- Generator: Adobe Illustrator 16.0.0, SVG Export Plug-In . SVG Version: 6.00 Build 0)  -->
<!DOCTYPE svg PUBLIC "-//W3C//DTD SVG 1.1//EN" "http://www.w3.org/Graphics/SVG/1.1/DTD/svg11.dtd">
<svg version="1.1" id="Layer_1" xmlns="http://www.w3.org/2000/svg" xmlns:xlink="http://www.w3.org/1999/xlink" x="0px" y="0px"
	 width="453.5px" height="449.6px" viewBox="0 0 453.5 449.6" enable-background="new 0 0 453.5 449.6" xml:space="preserve" preserveAspectRatio="none slice">
<ellipse fill-rule="evenodd" clip-rule="evenodd" fill="#010101" cx="228.2" cy="224.6" rx="224.7" ry="223.3"/>
<path fill-rule="evenodd" clip-rule="evenodd" fill="#FFFFFF" d="M149,435.5c8.4-1.3,16.8-1.6,24.2-6.4c-7.6-6.5-14.8-13-21.3-20.2
	c-10.1-11.3-19-23.5-26.5-36.7c-1-1.7-1.7-3.2-4.2-3.7c-25.1-5.4-48.5-15-70.7-27.8c-0.3-0.1-0.6-0.1-1.4-0.3
	c0.1,8.3,1.6,16.4,2.8,24.6c-8.7-4.7-30.5-43.5-39.1-69.2c-8.6-25.7-12.3-52.1-11.3-80.6C6.5,223.9,10,232,17.3,238
	c2.8-5.6,5.6-11.2,8.4-16.6c8.7-16.5,19-32,31.3-46c1.7-1.9,2.3-3.7,2.1-6.3c-2-18.4-2.3-36.8-0.1-55.2c0.8-7.2,2.5-14.3,4.2-22
	c-9.9,1.9-17.7,7-25.7,12.5c9.7-33.1,98.7-97.2,134.3-96.6c-10.5,6.8-19,14.9-25.5,25.5c9.9,1.8,19.5,3.4,28.9,5.8
	c14.7,3.8,29,8.5,43,14.3c2.6,1.1,4.8,1.2,7.5,0.2c22.2-8.1,45.2-13.7,68.4-18.2c6.4-1.2,6.4-1.2,3.1-6.5
	c-5.6-9.1-12.3-17.2-21.8-23.2c46,0.8,129.8,62.8,149.8,110.9c-9.7-8.7-19.7-15.5-31.8-18.8c-11.8-3.3-11.8-3.3-9.2,8
	c4.7,21.1,5.1,42.4,2,63.8c-0.5,3.7,0,6.3,2.7,9.3c16.1,17.7,29.1,37.4,39.2,59.1c0.5,1.2,1.2,2.3,2,4.1c10-11,17.4-23.1,22.2-36.7
	c5.3,64.2-9.5,112.8-51.3,163.2c1.5-9.7,1-19.4-0.3-29.1c-1.5-0.6-2.4,0.7-3.4,1.3c-22.6,13.4-46.7,22.3-72.8,25.8
	c-2.9,0.4-3.8,2.1-4.8,4.2c-8.3,18.2-19.2,34.5-34.1,48c-4.2,3.8-8.9,6.9-13.9,10.5c9.7,6,20.4,5.7,30.8,7
	C273,454.3,184.9,453.8,149,435.5z"/>
<path fill-rule="evenodd" clip-rule="evenodd" fill="#010101" d="M229.7,303c-19.8,0-36.6-0.8-53.3-2.1c-1.8-0.1-3-0.4-3.8-2.3
	c-11.4-28.9-23.7-57.5-30.3-88c-0.6-3-0.9-5.2,1.8-7.4c24.2-19.9,49.2-38.8,75.7-55.7c2.4-1.5,4.1-1.5,6.5,0.1
	c24.2,16.8,48.6,33.5,71.5,52.2c6.8,5.6,6.9,5.6,4.4,13.7c-8.6,27.4-17.2,54.9-26.7,82c-1.7,4.9-4.5,5.8-8.6,6.2
	C253.6,302.9,240.2,303.2,229.7,303z"/>
<rect x="-45.1" y="-108.3" display="none" width="551.2" height="714"/>
<path display="none" fill="#FFFFFF" d="M441.8,229.2c0,125.2-101.5,226.8-226.8,226.8c-125.2,0-226.8-101.5-226.8-226.8
	C-11.8,103.9,89.8,2.4,215,2.4C340.3,2.4,441.8,103.9,441.8,229.2z"/>
<polygon display="none" points="164.4,303.5 133.1,202.3 215,139.8 296.9,202.3 265.6,303.5 "/>
<polygon display="none" points="296.9,33.8 215,54 133.1,33.8 164.4,1.2 265.6,1.2 "/>
<polygon display="none" fill="#FFFFFF" points="133.1,202.3 215,139.8 296.9,202.3 265.2,303.3 164.2,303.5 "/>
<path display="none" d="M133.1,202.3c0,0,50.6-47.6,81.9-62.5c0,0,52.5,30,81.9,62.5c0,0-7.1,51.5-31.6,101c0,0-45,10.3-101,0.2
	C164.2,303.5,143.5,262.3,133.1,202.3z"/>
<path display="none" d="M133.1,35.8c0,0,44.9,6.7,75.3,22c0,0,29.3-13.7,78-22c0,0-6.7-16.3-26-28.3c0,0-48.3-12.3-99.7,1.3
	C160.7,8.8,144.2,17.5,133.1,35.8z"/>
<g display="none">
	<rect x="-6" y="7" display="inline" fill-rule="evenodd" clip-rule="evenodd" fill="none" width="228.7" height="234.8"/>
	<path display="inline" fill="#C13038" d="M9.9,7h80.9c17.6,0,30.8,4.2,39.6,12.6c8.8,8.4,13.2,20.3,13.2,35.8
		c0,15.9-4.8,28.3-14.3,37.3c-9.6,9-24.2,13.4-43.8,13.4H58.8v58.4H9.9V7z M58.8,74.2h11.9c9.4,0,16-1.6,19.8-4.9
		c3.8-3.3,5.7-7.4,5.7-12.5c0-4.9-1.6-9.1-4.9-12.6c-3.3-3.4-9.5-5.2-18.6-5.2H58.8V74.2z"/>
</g>
</svg>
