<?xml version="1.0" encoding="utf-8"?>
<!-- Generator: Adobe Illustrator 16.0.0, SVG Export Plug-In . SVG Version: 6.00 Build 0)  -->
<!DOCTYPE svg PUBLIC "-//W3C//DTD SVG 1.1//EN" "http://www.w3.org/Graphics/SVG/1.1/DTD/svg11.dtd">
<svg version="1.1" id="Layer_1" xmlns="http://www.w3.org/2000/svg" xmlns:xlink="http://www.w3.org/1999/xlink" x="0px" y="0px"
	 width="128px" height="128px" viewBox="0 0 128 128" enable-background="new 0 0 128 128" xml:space="preserve" preserveAspectRatio="none slice">
<g>
	<rect x="10" y="10" fill="none" width="116" height="116"/>
	<path fill="#FFFFFF" d="M36.7,12.7h21.5c12.3,0,20.6,0.5,24.9,1.6c6.2,1.5,11.2,4.6,15.1,9.3c3.9,4.7,5.9,10.6,5.9,17.8
		c0,7.2-1.9,13.1-5.7,17.8c-3.8,4.7-9.1,7.8-15.7,9.4c-4.9,1.2-14,1.8-27.4,1.8h-7.7v50.1H36.7V12.7z M47.4,23.2v36.5L65.7,60
		c7.4,0,12.8-0.7,16.2-2c3.4-1.3,6.1-3.5,8.1-6.5c2-3,2.9-6.3,2.9-10.1c0-3.6-1-6.9-2.9-9.9c-2-3-4.5-5.1-7.7-6.4
		c-3.2-1.3-8.4-1.9-15.7-1.9H47.4z"/>
</g>
</svg>
