<svg width="17" height="17" viewBox="0 0 17 17" fill="none" xmlns="http://www.w3.org/2000/svg">
<path d="M11.1666 8.79889V11.5989C11.1666 13.9322 10.2333 14.8656 7.89998 14.8656H5.09998C2.76665 14.8656 1.83331 13.9322 1.83331 11.5989V8.79889C1.83331 6.46556 2.76665 5.53223 5.09998 5.53223H7.89998C10.2333 5.53223 11.1666 6.46556 11.1666 8.79889Z" stroke="#04F06A" stroke-width="1.5" stroke-linecap="round" stroke-linejoin="round"/>
<path d="M15.1666 4.79889V7.59889C15.1666 9.93223 14.2333 10.8656 11.9 10.8656H11.1666V8.79889C11.1666 6.46556 10.2333 5.53223 7.89998 5.53223H5.83331V4.79889C5.83331 2.46556 6.76665 1.53223 9.09998 1.53223H11.9C14.2333 1.53223 15.1666 2.46556 15.1666 4.79889Z" stroke="#04F06A" stroke-width="1.5" stroke-linecap="round" stroke-linejoin="round"/>
</svg>
