<svg width="73" height="73" viewBox="0 0 73 73" fill="none" xmlns="http://www.w3.org/2000/svg">
<path d="M39.6146 4.23976C39.6146 2.09567 37.8722 0.337443 35.7389 0.5515C31.9702 0.929629 28.2701 1.85795 24.758 3.31271C20.0479 5.26371 15.7682 8.12329 12.1632 11.7283C8.55823 15.3333 5.69864 19.613 3.74764 24.3231C2.29289 27.8352 1.36457 31.5353 0.986436 35.3039C0.772379 37.4373 2.53061 39.1797 4.6747 39.1797H35.7324C37.8765 39.1797 39.6146 37.4415 39.6146 35.2975V4.23976Z" fill="url(#paint0_linear_662_49532)"/>
<g filter="url(#filter0_d_662_49532)">
<path d="M39.6128 70.4253C56.8693 70.4253 70.8584 56.4362 70.8584 39.1797C70.8584 21.9232 56.8693 7.93408 39.6128 7.93408C22.3563 7.93408 8.36719 21.9232 8.36719 39.1797C8.36719 56.4362 22.3563 70.4253 39.6128 70.4253Z" fill="#1D1D1D" fill-opacity="0.05"/>
<path d="M39.6128 70.4253C56.8693 70.4253 70.8584 56.4362 70.8584 39.1797C70.8584 21.9232 56.8693 7.93408 39.6128 7.93408C22.3563 7.93408 8.36719 21.9232 8.36719 39.1797C8.36719 56.4362 22.3563 70.4253 39.6128 70.4253Z" fill="url(#paint1_linear_662_49532)" fill-opacity="0.2"/>
<path d="M39.6141 70.3431C56.8251 70.3431 70.7775 56.3908 70.7775 39.1797C70.7775 21.9687 56.8251 8.01636 39.6141 8.01636C22.403 8.01636 8.45068 21.9687 8.45068 39.1797C8.45068 56.3908 22.403 70.3431 39.6141 70.3431Z" stroke="url(#paint2_linear_662_49532)" stroke-opacity="0.1" stroke-width="0.2"/>
</g>
<defs>
<filter id="filter0_d_662_49532" x="6.35071" y="6.41638" width="66.5267" height="66.5267" filterUnits="userSpaceOnUse" color-interpolation-filters="sRGB">
<feFlood flood-opacity="0" result="BackgroundImageFix"/>
<feColorMatrix in="SourceAlpha" type="matrix" values="0 0 0 0 0 0 0 0 0 0 0 0 0 0 0 0 0 0 127 0" result="hardAlpha"/>
<feOffset dy="0.5"/>
<feGaussianBlur stdDeviation="1"/>
<feComposite in2="hardAlpha" operator="out"/>
<feColorMatrix type="matrix" values="0 0 0 0 1 0 0 0 0 1 0 0 0 0 1 0 0 0 0.15 0"/>
<feBlend mode="normal" in2="BackgroundImageFix" result="effect1_dropShadow_662_49532"/>
<feBlend mode="normal" in="SourceGraphic" in2="effect1_dropShadow_662_49532" result="shape"/>
</filter>
<linearGradient id="paint0_linear_662_49532" x1="0.96875" y1="0.533813" x2="46.4925" y2="12.0931" gradientUnits="userSpaceOnUse">
<stop stop-color="#FFD482"/>
<stop offset="1" stop-color="#04F06A"/>
</linearGradient>
<linearGradient id="paint1_linear_662_49532" x1="8.36719" y1="7.93408" x2="81.9802" y2="26.6257" gradientUnits="userSpaceOnUse">
<stop stop-color="#f7de26"/>
<stop offset="1" stop-color="#04F06A"/>
</linearGradient>
<linearGradient id="paint2_linear_662_49532" x1="10.3213" y1="10.7746" x2="70.8597" y2="10.7746" gradientUnits="userSpaceOnUse">
<stop stop-color="#04F06A"/>
<stop offset="1" stop-color="#f7de26"/>
</linearGradient>
</defs>
</svg>
