<svg width="20" height="20" viewBox="0 0 20 20" fill="none" xmlns="http://www.w3.org/2000/svg">
<path d="M10 0.198975C7.48044 0.198975 5.06408 1.19986 3.28249 2.98146C1.50089 4.76306 0.5 7.17942 0.5 9.69897C0.5 12.2185 1.50089 14.6349 3.28249 16.4165C5.06408 18.1981 7.48044 19.199 10 19.199C10.1881 19.199 10.3685 19.1242 10.5016 18.9912C10.6346 18.8582 10.7093 18.6778 10.7093 18.4896C10.7093 18.3015 10.6346 18.1211 10.5016 17.9881C10.3685 17.855 10.1881 17.7803 10 17.7803C8.40166 17.7803 6.83922 17.3063 5.51025 16.4184C4.18128 15.5304 3.14548 14.2682 2.53382 12.7916C1.92216 11.3149 1.76213 9.69001 2.07395 8.12238C2.38577 6.55476 3.15544 5.1148 4.28563 3.98461C5.41583 2.85441 6.85578 2.08474 8.42341 1.77292C9.99104 1.4611 11.6159 1.62114 13.0926 2.2328C14.5693 2.84445 15.8314 3.88026 16.7194 5.20923C17.6074 6.53819 18.0813 8.10064 18.0813 9.69897V11.8966C18.0813 12.2914 17.9245 12.6699 17.6454 12.9491C17.3663 13.2282 16.9877 13.385 16.593 13.385C16.1983 13.385 15.8197 13.2282 15.5406 12.9491C15.2615 12.6699 15.1047 12.2914 15.1047 11.8966V9.69897C15.1058 8.4972 14.6837 7.33341 13.9123 6.41186C13.1409 5.49032 12.0696 4.8699 10.8864 4.65951C9.70314 4.44911 8.48362 4.66218 7.44183 5.26132C6.40005 5.86045 5.60257 6.80737 5.18936 7.93588C4.77616 9.06439 4.77362 10.3024 5.1822 11.4326C5.59079 12.5628 6.38438 13.5129 7.4237 14.1163C8.46302 14.7197 9.68166 14.9378 10.8657 14.7323C12.0498 14.5267 13.1236 13.9107 13.8988 12.9923C14.1522 13.6177 14.6153 14.1355 15.2087 14.4568C15.8021 14.7781 16.4888 14.883 17.1511 14.7535C17.8133 14.6239 18.4099 14.268 18.8385 13.7468C19.267 13.2256 19.5009 12.5714 19.5 11.8966V9.69897C19.4973 7.18024 18.4956 4.76544 16.7146 2.98442C14.9335 1.20341 12.5187 0.201657 10 0.198975ZM10 13.385C9.27098 13.385 8.55833 13.1688 7.95217 12.7638C7.34601 12.3587 6.87356 11.7831 6.59458 11.1095C6.3156 10.436 6.2426 9.69489 6.38483 8.97987C6.52705 8.26486 6.87811 7.60808 7.3936 7.09258C7.9091 6.57708 8.56588 6.22603 9.2809 6.0838C9.99591 5.94158 10.737 6.01457 11.4106 6.29355C12.0841 6.57254 12.6598 7.04498 13.0648 7.65114C13.4698 8.2573 13.686 8.96995 13.686 9.69897C13.685 10.6763 13.2963 11.6132 12.6053 12.3043C11.9142 12.9953 10.9773 13.384 10 13.385Z" fill="white"/>
</svg>
