<svg width="21" height="21" viewBox="0 0 21 21" fill="none" xmlns="http://www.w3.org/2000/svg">
<path d="M19.7904 12.4132L19.7549 12.5807L19.8296 12.7348C20.2991 13.7036 20.4485 14.7958 20.2564 15.8545C20.0643 16.9132 19.5406 17.8841 18.7602 18.6275C17.9799 19.371 16.9832 19.8487 15.9132 19.9917C14.8432 20.1348 13.7554 19.9358 12.8061 19.4234L12.6492 19.3387L12.4742 19.3724C11.0019 19.6556 9.48236 19.5737 8.04929 19.1338C6.61622 18.6939 5.31359 17.9096 4.2559 16.8499C3.19822 15.7903 2.41789 14.4878 1.98339 13.057C1.5489 11.6262 1.47352 10.1109 1.76388 8.64429L1.80124 8.45562L1.70252 8.29055C1.24277 7.52182 1.00007 6.64352 0.999999 5.74864C1.01359 4.84133 1.26847 3.95379 1.73871 3.17673C2.20954 2.39867 2.8794 1.7593 3.67977 1.32425C4.48015 0.889196 5.3822 0.674156 6.29348 0.701253C7.20475 0.72835 8.09233 0.996605 8.86528 1.47842L9.02859 1.58023L9.21802 1.54626C10.6942 1.28158 12.213 1.38282 13.6407 1.84106C15.0683 2.29929 16.3611 3.10044 17.4053 4.17389C18.4494 5.24734 19.213 6.56018 19.6288 7.99686C20.0447 9.43354 20.1002 10.9501 19.7904 12.4132Z" stroke="white"/>
<path d="M13.6893 15.9542C11.7381 16.6657 9.58832 16.602 7.68266 15.7762C5.33992 14.5228 4.92502 11.7162 6.94436 11.7162C8.46733 11.7162 7.98474 13.4924 9.52275 14.2157C10.0266 14.4026 10.5649 14.4785 11.1008 14.438C11.6367 14.3976 12.1575 14.2418 12.6276 13.9813C12.7979 13.8943 12.9454 13.7685 13.0582 13.614C13.1709 13.4595 13.2457 13.2806 13.2766 13.0919C13.3074 12.9032 13.2935 12.7098 13.2358 12.5274C13.1782 12.3451 13.0785 12.1788 12.9447 12.0421C11.6913 10.8839 8.10132 11.344 6.45927 9.31709C6.0765 8.80187 5.87233 8.17582 5.87776 7.534C5.88319 6.89218 6.09792 6.26966 6.48935 5.76099C8.01733 3.79555 12.4997 3.67522 14.4263 5.16058C16.2063 6.5394 15.7249 8.36571 14.2897 8.36571C12.5624 8.36571 13.4699 6.10946 10.6822 6.10946C8.66037 6.10946 7.86566 7.54719 9.28961 8.24036C11.22 9.19927 16.1373 8.87838 16.1373 12.6275C16.1257 13.3678 15.8837 14.0862 15.445 14.6826C15.0063 15.279 14.3926 15.724 13.6893 15.9555V15.9542Z" fill="white"/>
</svg>
