<svg width="74" height="80" viewBox="0 0 74 80" fill="none" xmlns="http://www.w3.org/2000/svg">
<g filter="url(#filter0_d_662_49538)">
<path d="M35.4279 20.5784C36.443 19.5417 38.0888 19.5417 39.1039 20.5784L47.3747 29.0261C52.9577 34.7283 52.9577 43.9735 47.3747 49.6757C41.7918 55.378 32.74 55.378 27.1571 49.6757C21.5742 43.9735 21.5742 34.7283 27.1571 29.0261L35.4279 20.5784Z" fill="url(#paint0_linear_662_49538)"/>
<g filter="url(#filter1_d_662_49538)">
<path d="M67.353 21.7056C68.8883 25.4254 69.7247 29.3957 69.822 33.4162C69.8327 33.8547 69.4761 34.2104 69.0374 34.2104H40.8867V59.6255C40.8867 61.5029 41.4884 62.583 42.0883 63.185C42.7222 63.8211 43.5907 64.1638 44.5048 64.1638C45.4189 64.1638 46.2874 63.8211 46.9213 63.185C47.5212 62.583 48.1229 61.5029 48.1229 59.6255C48.1229 57.6202 49.7428 55.9947 51.741 55.9947C53.7393 55.9947 55.3592 57.6202 55.3592 59.6255C55.3592 63.1942 54.1518 66.1986 52.0381 68.3196C49.9584 70.4066 47.2089 71.4253 44.5048 71.4253C41.8008 71.4253 39.0512 70.4066 36.9715 68.3196C34.8578 66.1986 33.6504 63.1942 33.6504 59.6255V34.2104H5.49968C5.06105 34.2104 4.70445 33.8548 4.71508 33.4163C4.81247 29.3957 5.64875 25.4254 7.18418 21.7056C8.82062 17.7411 11.2192 14.1388 14.2429 11.1046C17.2667 8.07026 20.8564 5.66332 24.8072 4.02117C28.7579 2.37902 32.9923 1.53381 37.2686 1.53381C41.5448 1.53381 45.7792 2.37902 49.7299 4.02117C53.6807 5.66332 57.2704 8.07026 60.2942 11.1046C63.3179 14.1388 65.7165 17.7411 67.353 21.7056Z" fill="#1D1D1D" fill-opacity="0.05"/>
<path d="M67.353 21.7056C68.8883 25.4254 69.7247 29.3957 69.822 33.4162C69.8327 33.8547 69.4761 34.2104 69.0374 34.2104H40.8867V59.6255C40.8867 61.5029 41.4884 62.583 42.0883 63.185C42.7222 63.8211 43.5907 64.1638 44.5048 64.1638C45.4189 64.1638 46.2874 63.8211 46.9213 63.185C47.5212 62.583 48.1229 61.5029 48.1229 59.6255C48.1229 57.6202 49.7428 55.9947 51.741 55.9947C53.7393 55.9947 55.3592 57.6202 55.3592 59.6255C55.3592 63.1942 54.1518 66.1986 52.0381 68.3196C49.9584 70.4066 47.2089 71.4253 44.5048 71.4253C41.8008 71.4253 39.0512 70.4066 36.9715 68.3196C34.8578 66.1986 33.6504 63.1942 33.6504 59.6255V34.2104H5.49968C5.06105 34.2104 4.70445 33.8548 4.71508 33.4163C4.81247 29.3957 5.64875 25.4254 7.18418 21.7056C8.82062 17.7411 11.2192 14.1388 14.2429 11.1046C17.2667 8.07026 20.8564 5.66332 24.8072 4.02117C28.7579 2.37902 32.9923 1.53381 37.2686 1.53381C41.5448 1.53381 45.7792 2.37902 49.7299 4.02117C53.6807 5.66332 57.2704 8.07026 60.2942 11.1046C63.3179 14.1388 65.7165 17.7411 67.353 21.7056Z" fill="url(#paint1_linear_662_49538)" fill-opacity="0.2"/>
<path d="M33.7311 34.2104C33.7311 34.1893 33.7227 34.1691 33.7079 34.1542C33.693 34.1394 33.6728 34.131 33.6517 34.131H5.50094C5.10565 34.131 4.78622 33.8108 4.79574 33.4182C4.8929 29.4074 5.72715 25.4467 7.25885 21.7359C8.89133 17.7811 11.2841 14.1876 14.3005 11.1607C17.3169 8.13376 20.8979 5.73269 24.839 4.09456C28.78 2.45642 33.0041 1.61328 37.2698 1.61328C41.5356 1.61328 45.7596 2.45642 49.7007 4.09455C53.6417 5.73269 57.2227 8.13376 60.2391 11.1607C63.2556 14.1876 65.6483 17.781 67.2808 21.7359C68.8125 25.4467 69.6467 29.4074 69.7439 33.4182C69.7534 33.8108 69.434 34.131 69.0387 34.131H40.888C40.8441 34.131 40.8086 34.1665 40.8086 34.2104V59.6255C40.8086 61.5214 41.4169 62.6226 42.0333 63.2411C42.683 63.8931 43.5721 64.2433 44.5061 64.2433C45.44 64.2433 46.3291 63.8931 46.9789 63.2411C47.5952 62.6226 48.2036 61.5214 48.2036 59.6255C48.2036 57.6639 49.7882 56.0742 51.7423 56.0742C53.6964 56.0742 55.281 57.6639 55.281 59.6255C55.281 63.1759 54.0802 66.1592 51.9831 68.2637C49.9193 70.3346 47.1904 71.346 44.5061 71.346C41.8217 71.346 39.0928 70.3346 37.029 68.2637C34.9319 66.1592 33.7311 63.1759 33.7311 59.6255V34.2104Z" stroke="url(#paint2_linear_662_49538)" stroke-opacity="0.1" stroke-width="0.2" stroke-linecap="round" stroke-linejoin="round"/>
</g>
</g>
<defs>
<filter id="filter0_d_662_49538" x="0.695557" y="1.51331" width="73.1486" height="77.9326" filterUnits="userSpaceOnUse" color-interpolation-filters="sRGB">
<feFlood flood-opacity="0" result="BackgroundImageFix"/>
<feColorMatrix in="SourceAlpha" type="matrix" values="0 0 0 0 0 0 0 0 0 0 0 0 0 0 0 0 0 0 127 0" result="hardAlpha"/>
<feOffset dy="4"/>
<feGaussianBlur stdDeviation="2"/>
<feComposite in2="hardAlpha" operator="out"/>
<feColorMatrix type="matrix" values="0 0 0 0 0 0 0 0 0 0 0 0 0 0 0 0 0 0 0.25 0"/>
<feBlend mode="normal" in2="BackgroundImageFix" result="effect1_dropShadow_662_49538"/>
<feBlend mode="normal" in="SourceGraphic" in2="effect1_dropShadow_662_49538" result="shape"/>
</filter>
<filter id="filter1_d_662_49538" x="2.69556" y="0.0133057" width="69.1486" height="73.9326" filterUnits="userSpaceOnUse" color-interpolation-filters="sRGB">
<feFlood flood-opacity="0" result="BackgroundImageFix"/>
<feColorMatrix in="SourceAlpha" type="matrix" values="0 0 0 0 0 0 0 0 0 0 0 0 0 0 0 0 0 0 127 0" result="hardAlpha"/>
<feOffset dy="0.5"/>
<feGaussianBlur stdDeviation="1"/>
<feComposite in2="hardAlpha" operator="out"/>
<feColorMatrix type="matrix" values="0 0 0 0 1 0 0 0 0 1 0 0 0 0 1 0 0 0 0.15 0"/>
<feBlend mode="normal" in2="BackgroundImageFix" result="effect1_dropShadow_662_49538"/>
<feBlend mode="normal" in="SourceGraphic" in2="effect1_dropShadow_662_49538" result="shape"/>
</filter>
<linearGradient id="paint0_linear_662_49538" x1="22.9699" y1="19.8009" x2="57.2718" y2="27.0929" gradientUnits="userSpaceOnUse">
<stop stop-color="#f7de26"/>
<stop offset="1" stop-color="#04F06A"/>
</linearGradient>
<linearGradient id="paint1_linear_662_49538" x1="4.70546" y1="1.53381" x2="82.0388" y2="19.8314" gradientUnits="userSpaceOnUse">
<stop stop-color="#f7de26"/>
<stop offset="1" stop-color="#04F06A"/>
</linearGradient>
<linearGradient id="paint2_linear_662_49538" x1="6.74192" y1="4.71075" x2="69.8329" y2="4.71075" gradientUnits="userSpaceOnUse">
<stop stop-color="#FFC282"/>
<stop offset="1" stop-color="#FF4980"/>
</linearGradient>
</defs>
</svg>
