<?xml version="1.0" encoding="utf-8"?>
<!-- Generator: Adobe Illustrator 25.0.1, SVG Export Plug-In . SVG Version: 6.00 Build 0)  -->
<svg version="1.1" id="Layer_1" xmlns="http://www.w3.org/2000/svg" xmlns:xlink="http://www.w3.org/1999/xlink" x="0px" y="0px"
	 viewBox="0 0 187.9 158.1" style="enable-background:new 0 0 187.9 158.1;" xml:space="preserve">
<style type="text/css">
	.st0{fill:url(#SVGID_1_);}
	.st1{fill:url(#SVGID_2_);}
	.st2{fill:url(#SVGID_3_);}
</style>
<g>
	<g>
		<linearGradient id="SVGID_1_" gradientUnits="userSpaceOnUse" x1="31.9561" y1="158.858" x2="31.9561" y2="-3.5575">
			<stop  offset="0" style="stop-color:#11e311"/>
			<stop  offset="0.5" style="stop-color:#11e311"/>
			<stop  offset="1" style="stop-color:#11e311"/>
		</linearGradient>
		<path class="st0" d="M30.7,67.9c4.1,0,6.6,1,10.5,2.2c1.6,0.6,5.2,1.8,6.7,1.8c1.5,0,2.1-0.6,3.2-1.5c0.6-0.5,0.9-1,1.7-1
			c1.2,0,2,1,2,2.1c0,2.2-2.1,7-3.3,8.9c-2.3,3.9-7.1,5.7-12.7,5.7c-5.8,0-12.5-2.9-18.5-2.9c-0.8,0-1.5,0-2.3,0.2
			c-4.4,0.7-4.9,3.5-4.9,6.9V91H9.1l3.3-21.8h3.7l-0.7,6C20.9,70.6,23,67.9,30.7,67.9 M46.9,89.2c-6.9,13.5-7.8,20.6-6.1,29.9
			c0.6,2.9,1.1,5.1,1.1,8.2c0,6-4,12-10.9,12c-7.8,0-11.4-6.7-11.4-13.8c0-14.7,14-22.9,20.7-34.5C42.6,90.8,44.9,90.1,46.9,89.2
			 M30.7,58.7c-4.6,0-8.1,0.8-10.9,2.1c-1.1-0.5-2.4-0.7-3.6-0.7h-3.7c-4.5,0-8.4,3.3-9,7.8L0.1,89.7C-0.3,92.3,0.5,95,2.2,97
			c1.7,2,4.3,3.2,6.9,3.2h3.9c4.6,0,8.3-3.3,9-7.7c1.5,0.2,3.3,0.6,5.1,1c-0.7,0.8-1.5,1.7-2.2,2.6c-3.3,3.7-6.6,7.5-9.3,12
			c-3.4,5.7-5.1,11.4-5.1,17.5c0,5.6,1.6,11,4.5,14.9c3.8,5.2,9.4,8,16,8c6,0,11.3-2.5,15.1-7.1c3.2-3.9,5-8.9,5-14.1
			c0-3.5-0.5-6.2-1-8.7c-0.1-0.4-0.2-0.8-0.2-1.2c-1.3-6.9-0.9-12,5.2-24c0.7-1.3,1-2.8,1-4.3c1.3-1.2,2.4-2.6,3.3-4.1
			c0.3-0.5,4.6-7.8,4.6-13.5c0-2.7-1-5.4-2.7-7.4c-2.1-2.5-5.2-3.9-8.4-3.9c-2.8,0-4.9,1.1-6.2,2c-0.7-0.2-1.4-0.5-2.3-0.8
			c-0.1,0-0.2-0.1-0.3-0.1c-0.5-0.2-1.1-0.3-1.5-0.5C39.1,59.8,35.6,58.7,30.7,58.7L30.7,58.7z M46.9,98.4L46.9,98.4L46.9,98.4
			L46.9,98.4z"/>
	</g>
	<g>
		<linearGradient id="SVGID_2_" gradientUnits="userSpaceOnUse" x1="92.8923" y1="158.858" x2="92.8923" y2="-3.5575">
			<stop  offset="0" style="stop-color:#11e311"/>
			<stop  offset="0.5" style="stop-color:#11e311"/>
			<stop  offset="1" style="stop-color:#11e311"/>
		</linearGradient>
		<path class="st1" d="M90.7,9.1c7,0,11.4,1.8,18.1,3.8c2.7,1,9,3,11.5,3c2.6,0,3.7-1,5.4-2.6c1-0.8,1.6-1.8,2.9-1.8
			c2.1,0,3.4,1.8,3.4,3.7c0,3.8-3.7,12-5.6,15.2c-4,6.7-12.2,9.8-21.7,9.8c-9.9,0-21.4-4.9-31.7-4.9c-1.3,0-2.6,0.1-3.9,0.3
			c-7.5,1.1-8.3,5.9-8.5,11.8v1.3h-6.7l5.6-37.4h6.4l-1.3,10.2C73.9,13.8,77.5,9.1,90.7,9.1 M118.6,45.8
			c-11.8,23.2-13.4,52.7-10.4,68.5c1,5,1.9,8.8,1.9,14.1c0,10.2-6.9,20.6-18.7,20.6c-13.4,0-19.5-11.5-19.5-23.7
			c0-25.3,24-56.7,35.5-76.5C111.2,48.5,115,47.2,118.6,45.8 M90.7,0c-6.9,0-12.2,1.1-17.1,3.5c-0.6,0.3-1.3,0.6-1.8,1
			c-1.6-1.4-3.8-2.2-6-2.2h-6.4c-4.5,0-8.4,3.3-9,7.8l-5.6,37.4c-0.4,2.6,0.4,5.3,2.1,7.3c1.7,2,4.3,3.2,6.9,3.2h6.7
			c5.1,0,9.1-4.1,9.1-9.1v-1.2c0-1.4,0.1-2.3,0.2-2.8c0.1,0,0.3-0.1,0.4-0.1c0.8-0.1,1.7-0.2,2.6-0.2c4.2,0,9.1,1.1,14.2,2.3
			c3.1,0.7,6.4,1.4,9.6,2c-1.6,2.7-3.5,5.5-5.3,8.5c-12.8,20.2-28.6,45.2-28.6,68c0,8.3,2.3,16,6.5,21.8c5.2,7.1,13.1,11,22.2,11
			c8.2,0,15.6-3.5,20.8-9.8c4.5-5.5,7-12.6,7-20c0-5.4-0.8-9.4-1.7-13.7c-0.1-0.7-0.3-1.4-0.4-2.1c-3-15.5-0.6-42.7,9.6-62.6
			c1.1-2.2,1.3-4.7,0.6-7c2.8-2.1,5.2-4.7,7-7.7c1.5-2.5,6.9-12.9,6.9-19.9c0-3.1-1.1-6.2-3.1-8.5c-2.3-2.8-5.8-4.3-9.4-4.3
			c-4.6,0-7.5,2.7-8.5,3.7c-0.1,0.1-0.2,0.2-0.2,0.2c-0.1,0.1-0.2,0.2-0.3,0.2c0,0,0,0,0,0c-1.4-0.3-4.1-1.1-7.7-2.4
			c-0.1,0-0.2-0.1-0.3-0.1c-0.9-0.3-1.8-0.6-2.7-0.9C103.3,1.6,98.2,0,90.7,0L90.7,0z M118.6,54.9L118.6,54.9L118.6,54.9L118.6,54.9
			z"/>
	</g>
	<g>
		<linearGradient id="SVGID_3_" gradientUnits="userSpaceOnUse" x1="155.9882" y1="158.858" x2="155.9882" y2="-3.5575">
			<stop  offset="0" style="stop-color:#11e311"/>
			<stop  offset="0.5" style="stop-color:#11e311"/>
			<stop  offset="1" style="stop-color:#11e311"/>
		</linearGradient>
		<path class="st2" d="M154.7,67.9c4.1,0,6.6,1,10.5,2.2c1.6,0.6,5.2,1.8,6.7,1.8c1.5,0,2.1-0.6,3.2-1.5c0.6-0.5,0.9-1,1.7-1
			c1.2,0,2,1,2,2.1c0,2.2-2.1,7-3.3,8.9c-2.3,3.9-7.1,5.7-12.7,5.7c-5.8,0-12.5-2.9-18.5-2.9c-0.8,0-1.5,0-2.3,0.2
			c-4.4,0.7-4.9,3.5-4.9,6.9V91h-3.9l3.3-21.8h3.7l-0.7,6C144.9,70.6,147,67.9,154.7,67.9 M171,89.2c-6.9,13.5-7.8,20.6-6.1,29.9
			c0.6,2.9,1.1,5.1,1.1,8.2c0,6-4,12-10.9,12c-7.8,0-11.4-6.7-11.4-13.8c0-14.7,14-22.9,20.7-34.5C166.7,90.8,168.9,90.1,171,89.2
			 M154.7,58.7c-4.6,0-8.1,0.8-10.9,2.1c-1.1-0.5-2.4-0.7-3.6-0.7h-3.7c-4.5,0-8.4,3.3-9,7.8l-3.3,21.8c-0.4,2.6,0.4,5.3,2.1,7.3
			c1.7,2,4.3,3.2,6.9,3.2h3.9c4.6,0,8.3-3.3,9-7.7c1.5,0.2,3.3,0.6,5.1,1c-0.7,0.8-1.5,1.7-2.2,2.6c-3.3,3.7-6.6,7.5-9.3,12
			c-3.4,5.7-5.1,11.4-5.1,17.5c0,5.6,1.6,11,4.5,14.9c3.8,5.2,9.4,8,16,8c6,0,11.3-2.5,15.1-7.1c3.2-3.9,5-8.9,5-14.1
			c0-3.5-0.5-6.2-1-8.7c-0.1-0.4-0.2-0.8-0.2-1.2c-1.3-6.9-0.9-12,5.2-24c0.7-1.3,1-2.8,1-4.3c1.3-1.2,2.4-2.6,3.3-4.1
			c0.3-0.5,4.6-7.8,4.6-13.5c0-2.7-1-5.4-2.7-7.4c-2.1-2.5-5.2-3.9-8.4-3.9c-2.8,0-4.9,1.1-6.2,2c-0.6-0.2-1.4-0.5-2.3-0.8
			c-0.1,0-0.2-0.1-0.3-0.1c-0.5-0.2-1.1-0.3-1.5-0.5C163.1,59.8,159.7,58.7,154.7,58.7L154.7,58.7z M171,98.4L171,98.4L171,98.4
			L171,98.4z"/>
	</g>
</g>
</svg>
