<svg width="21" height="20" viewBox="0 0 21 20" fill="none" xmlns="http://www.w3.org/2000/svg">
<path d="M7.65379 1.6665C6.61447 1.66775 5.61741 2.07806 4.87824 2.80869C4.13907 3.53932 3.7172 4.53154 3.70387 5.57078C3.69054 6.61002 4.08682 7.61274 4.80701 8.36208C5.5272 9.11143 6.51341 9.54717 7.55236 9.57508C7.61326 9.56668 7.67503 9.56668 7.73593 9.57508H7.79522C8.82985 9.5358 9.80784 9.09243 10.5192 8.34016C11.2306 7.58789 11.6187 6.58669 11.6002 5.55148C11.5817 4.51627 11.1581 3.52958 10.4202 2.80323C9.68238 2.07688 8.68916 1.66877 7.65379 1.6665Z" fill="#11e311"/>
<path d="M11.8917 11.7914C10.6122 11.0305 9.1511 10.6289 7.66242 10.6289C6.17375 10.6289 4.71265 11.0305 3.43314 11.7914C2.95568 12.067 2.55514 12.4582 2.26832 12.929C1.9815 13.3997 1.81761 13.9351 1.79171 14.4857C1.81791 15.0324 1.98128 15.5637 2.26676 16.0307C2.55224 16.4977 2.95065 16.8853 3.42528 17.1579C4.69241 17.9524 6.1635 18.3607 7.65885 18.3329C9.15397 18.3605 10.6248 17.9522 11.8917 17.1579C12.3675 16.8819 12.7664 16.4908 13.0518 16.0206C13.3373 15.5503 13.5 15.0159 13.5253 14.4664C13.4977 13.9197 13.3338 13.3885 13.0485 12.9213C12.7632 12.4541 12.3655 12.0657 11.8917 11.7914Z" fill="#11e311"/>
<path d="M16.8122 6.11707C16.8808 6.88802 16.647 7.65543 16.1603 8.25721C15.6735 8.85898 14.9719 9.248 14.2037 9.34207H14.1622C14.114 9.33865 14.0656 9.34422 14.0194 9.3585C13.2542 9.40646 12.4999 9.15868 11.9122 8.66636C12.3516 8.27145 12.6932 7.77986 12.9102 7.23036C13.1271 6.68086 13.2134 6.08848 13.1622 5.49993C13.1051 4.85004 12.8844 4.22518 12.5208 3.6835C12.9574 3.47082 13.4393 3.36762 13.9247 3.38281C14.4102 3.39801 14.8846 3.53114 15.3071 3.77072C15.7296 4.01029 16.0874 4.34911 16.3496 4.7579C16.6118 5.1667 16.7706 5.63318 16.8122 6.11707Z" fill="#11e311" fill-opacity="0.6"/>
<path d="M18.4789 13.8248C18.4247 14.2514 18.2629 14.6573 18.0088 15.0042C17.7546 15.3512 17.4165 15.6279 17.0261 15.8083C16.1225 16.2745 15.1135 16.4984 14.0975 16.4583C14.6717 15.9671 15.0374 15.2758 15.1204 14.5248C15.142 13.9764 15.0259 13.4314 14.7827 12.9394C14.5396 12.4474 14.177 12.0242 13.7282 11.7083C13.1494 11.2585 12.5025 10.904 11.8118 10.6583C12.7556 10.3892 13.748 10.3369 14.7149 10.5052C15.6817 10.6736 16.5981 11.0582 17.3954 11.6305C17.7467 11.8749 18.0304 12.2043 18.2198 12.588C18.4093 12.9718 18.4985 13.3973 18.4789 13.8248Z" fill="#11e311" fill-opacity="0.6"/>
</svg>
