<svg width="16" height="20" viewBox="0 0 16 20" fill="none" xmlns="http://www.w3.org/2000/svg">
<mask id="mask0_583_42911" style="mask-type:luminance" maskUnits="userSpaceOnUse" x="0" y="0" width="16" height="20">
<path d="M15.6965 0H0.154434V20H15.6965V0Z" fill="white"/>
</mask>
<g mask="url(#mask0_583_42911)">
<path d="M1.90428 19.8544C1.74565 19.8345 1.59078 19.7915 1.44461 19.7267C1.29146 19.396 1.26599 19.0203 1.3731 18.672C1.49057 18.2549 1.59783 17.8318 1.70339 17.4113C1.73207 17.3136 1.72389 17.2088 1.6804 17.1168C1.64153 17.0132 1.62387 16.9029 1.62848 16.7925C1.63798 16.5231 1.72682 16.2625 1.88385 16.0434L1.96387 15.9012C2.01733 15.7844 2.04795 15.6584 2.0541 15.5301C2.06419 15.4049 2.08934 15.2814 2.12901 15.1623C2.25166 14.8734 2.40279 14.5973 2.58017 14.3383C2.72295 14.1255 2.85039 13.9027 2.96153 13.6718C2.98454 13.5637 2.98656 13.4521 2.96748 13.3432C2.95654 13.2523 2.95284 13.1606 2.95642 13.0691C2.9804 12.7075 3.02788 12.3478 3.09858 11.9923L3.12922 11.8288C3.17005 11.7006 3.17766 11.5641 3.15135 11.4322C3.06864 11.2269 3.03652 11.0047 3.05772 10.7844C3.06217 10.7213 3.0573 10.6579 3.04325 10.5962C3.01003 10.4714 3.01298 10.3398 3.05176 10.2166C3.10155 10.0761 3.19682 9.95627 3.32245 9.87609C3.32404 9.63886 3.30323 9.40202 3.26031 9.1687C3.19313 8.81354 3.17879 8.45039 3.21775 8.09103C3.25876 8.02776 3.30832 7.97047 3.36502 7.92078L3.10283 7.8663C3.07145 7.85907 3.0433 7.84175 3.0227 7.817C3.0021 7.79225 2.99018 7.76142 2.98877 7.72925C2.98291 7.47016 3.00951 7.21136 3.06793 6.95887C3.10307 6.76016 3.12129 6.55883 3.12241 6.35704C3.12428 6.17739 3.13708 5.99801 3.16072 5.81991C3.1745 5.74209 3.21734 5.67243 3.28056 5.62501C3.34378 5.5776 3.42266 5.55598 3.50122 5.56453C3.67572 5.55091 3.81277 5.5424 3.94046 5.52197C3.86929 5.07018 3.87591 4.60954 3.96004 4.15998C4.04815 3.54562 4.36269 2.98637 4.84193 2.59199C5.06956 2.43142 5.33902 2.34061 5.61741 2.33065C5.73143 2.32985 5.8446 2.35035 5.9511 2.39109C5.88837 2.12794 5.87926 1.85485 5.92431 1.5881C5.96935 1.32135 6.06763 1.06639 6.21328 0.838421C6.45119 0.49793 6.80389 0.254636 7.20668 0.153169L7.77021 0.145508C8.16373 0.290833 8.53593 0.488388 8.87683 0.732867L8.99089 1.04017C9.131 1.41643 9.15356 1.82637 9.05559 2.21574C8.94085 2.33899 8.79805 2.43273 8.63933 2.48899L8.61124 2.50261C8.62231 2.58773 8.63422 2.67285 8.64784 2.75798C8.80447 2.73585 8.9611 2.7018 9.11603 2.6686L9.27606 2.63625C9.29543 2.46744 9.35371 2.30543 9.44631 2.16296C9.45968 2.14467 9.47726 2.12986 9.49756 2.11978C9.51785 2.10971 9.54028 2.10466 9.56293 2.10507C9.5734 2.10395 9.58396 2.10395 9.59443 2.10507C9.62197 2.11095 9.64717 2.12483 9.66685 2.14497C9.68654 2.16511 9.69984 2.19062 9.70509 2.21829C9.72467 2.31618 9.74169 2.41578 9.75616 2.51452C9.84927 2.58971 9.96055 2.63904 10.0788 2.65753H13.7851C13.8359 2.65691 13.8862 2.66767 13.9324 2.68903C13.9324 2.5341 13.9324 2.37917 13.9417 2.22425C13.9435 2.18676 13.9596 2.15137 13.9866 2.12539C14.0137 2.09941 14.0498 2.08482 14.0873 2.08464H14.2303C14.2684 2.08504 14.3048 2.09999 14.3322 2.12643C14.3596 2.15286 14.3758 2.18878 14.3776 2.2268V2.40982C14.3734 2.53556 14.38 2.66143 14.3972 2.78607L14.4431 2.79118C14.5163 2.79969 14.6278 2.86524 14.6312 2.93674L14.6372 3.06868C14.6372 3.06868 14.9173 3.07805 15.0501 3.07805C15.2336 3.0805 15.417 3.06711 15.5983 3.03804C15.711 3.02166 15.8248 3.01398 15.9388 3.01505L16.3754 3.02357C16.4139 3.02308 16.451 3.03755 16.4789 3.06392C16.5069 3.09029 16.5235 3.12649 16.5253 3.16487C16.5287 3.24728 16.537 3.32942 16.5499 3.41088C16.5536 3.43087 16.553 3.45141 16.5482 3.47114C16.5433 3.49088 16.5344 3.50938 16.522 3.52544C16.5095 3.5415 16.4938 3.55476 16.4759 3.56436C16.458 3.57395 16.4383 3.57967 16.418 3.58113C16.2478 3.59475 16.0775 3.60582 15.8996 3.60582C15.748 3.60726 15.5965 3.59587 15.4467 3.57177C15.3405 3.5599 15.2336 3.55421 15.1267 3.55474C14.97 3.55474 14.8126 3.56411 14.6542 3.57432C14.4959 3.58454 14.3265 3.59645 14.1639 3.59645H14.0788C14.0388 3.68754 13.9766 3.79565 13.9332 3.7965H12.5031C12.4467 3.78955 12.3894 3.79535 12.3355 3.81347C12.2815 3.83159 12.2324 3.86157 12.1916 3.9012C12.1209 3.98633 12.0469 4.07145 11.9745 4.14551C11.8931 4.22803 11.8166 4.31529 11.7455 4.40684C11.764 4.61492 11.806 4.82025 11.8707 5.01888L11.9311 5.24787C11.9389 5.28257 11.9339 5.31892 11.917 5.35021C11.9001 5.3815 11.8725 5.40563 11.8392 5.41812L11.5736 5.51431C11.5531 5.59943 11.5387 5.68456 11.5242 5.76968C11.5111 6.07881 11.3761 6.37018 11.1488 6.58007L10.9913 6.70776C10.8675 6.8221 10.7286 6.91892 10.5785 6.99548C10.5149 7.02441 10.4457 7.03895 10.3759 7.03804C10.2962 7.03592 10.2171 7.0245 10.1401 7.00399C9.69672 6.91902 9.273 6.75248 8.89045 6.51282C8.80532 6.46515 8.71594 6.41663 8.62826 6.37236L8.59592 6.49835C8.68164 6.53734 8.75852 6.59337 8.82189 6.66303C8.88526 6.73269 8.93378 6.81452 8.96451 6.90354C9.01406 7.12715 9.02243 7.35793 8.98919 7.58454C8.98919 7.58454 8.92705 8.4826 8.91428 8.61625C8.86986 8.89462 8.74736 9.15467 8.56102 9.36619C8.54776 9.3842 8.53045 9.39882 8.51048 9.40888C8.49051 9.41894 8.46845 9.42415 8.4461 9.42408C8.43427 9.42414 8.42251 9.42242 8.4112 9.41897L8.11667 9.34151C8.09627 9.46721 8.10695 9.59599 8.14775 9.71661C8.18855 9.83724 8.25825 9.94606 8.35076 10.0336C8.96483 10.7899 9.42858 11.6567 9.71701 12.5873C9.7423 12.6565 9.78075 12.72 9.83022 12.7746C9.91722 12.8692 9.97745 12.9852 10.0047 13.1108C10.0836 13.3264 10.1226 13.5546 10.1196 13.7842C10.095 14.1689 10.0677 14.5562 10.0277 14.9435C10.0182 15.0367 10.004 15.1293 9.98515 15.2211C9.94215 15.3924 9.93232 15.5704 9.95621 15.7454C10.0245 16.004 10.0186 16.2766 9.93918 16.532C9.85421 16.7977 9.81844 17.0766 9.83363 17.3551C9.81333 17.534 9.85543 17.7144 9.9528 17.8659C10.1056 18.0694 10.275 18.2598 10.4593 18.4354C10.5472 18.483 10.6399 18.5209 10.7359 18.5486C10.9295 18.5974 11.1061 18.698 11.2467 18.8397C11.3105 18.9633 11.3315 19.1047 11.3063 19.2415C11.3003 19.307 11.2407 19.4756 11.1752 19.4858C10.9 19.5287 10.622 19.5508 10.3435 19.5522C9.95874 19.5547 9.57591 19.4973 9.20881 19.3819C9.13389 19.3588 9.05566 19.3481 8.97727 19.3504C8.97727 19.3504 8.6521 19.3675 8.584 19.3675C8.4243 19.3736 8.26587 19.3369 8.12518 19.2611C8.10185 19.2476 8.08263 19.2281 8.06959 19.2045C8.05654 19.181 8.05015 19.1543 8.05112 19.1274C8.07557 18.7189 8.16405 18.3167 8.3133 17.9357C8.33631 17.7679 8.33631 17.5978 8.3133 17.43C8.30479 17.3381 8.29883 17.2453 8.29628 17.1525C8.28678 17.024 8.25659 16.8978 8.2069 16.7788C8.17244 16.686 8.14401 16.591 8.12177 16.4945C7.99677 15.9855 7.92853 15.4642 7.91833 14.9401C7.91095 14.7853 7.94849 14.6315 8.02643 14.4975C8.07121 14.4187 8.10013 14.332 8.11156 14.2421C8.13401 14.1522 8.13681 14.0585 8.11977 13.9675C8.10273 13.8764 8.06625 13.7901 8.01281 13.7144L8.04942 13.6863L7.99749 13.6284V13.7739H7.95919C7.8377 13.7937 7.71308 13.7782 7.60019 13.7291C7.48729 13.6801 7.39089 13.5996 7.32245 13.4973L6.51547 12.2885C6.48142 12.2289 6.43035 12.2145 6.31118 12.1915C6.23503 12.1803 6.16082 12.1585 6.0907 12.1268C6.00919 12.0545 5.93966 11.9697 5.8847 11.8757C5.83906 11.972 5.77844 12.0605 5.70509 12.1378C5.55973 12.308 5.4521 12.507 5.38928 12.7218L5.32118 12.8989C5.24173 13.0885 5.1846 13.2868 5.15093 13.4896C5.15048 13.5943 5.12883 13.6979 5.08728 13.794C5.04573 13.8901 4.98514 13.9768 4.90917 14.0489C4.81577 14.1303 4.73765 14.2277 4.67849 14.3366C4.61151 14.4538 4.52873 14.5612 4.43248 14.6558C4.31156 14.7808 4.22784 14.9371 4.19072 15.107C4.19072 15.1478 4.19072 15.2134 4.19839 15.2772C4.21178 15.3951 4.20603 15.5144 4.18136 15.6305C4.11907 15.8498 4.03346 16.0619 3.92599 16.263C3.88002 16.3566 3.8349 16.4503 3.79404 16.5456C3.75485 16.6385 3.72047 16.7334 3.69104 16.8299C3.65309 16.9527 3.60731 17.073 3.55399 17.19C3.50122 17.2886 3.42228 17.3708 3.32586 17.4275C3.28283 17.4552 3.24337 17.488 3.20839 17.5254C2.96775 17.9624 2.88622 18.4693 2.9777 18.9597C3.07364 19.1824 3.1032 19.428 3.06282 19.6671C3.05656 19.6963 3.04155 19.7228 3.01979 19.7432C2.99804 19.7636 2.97059 19.7768 2.9411 19.7812L2.79638 19.8016C2.67721 19.8186 2.55718 19.8357 2.43716 19.8476H1.90428V19.8544Z" fill="#11e311"/>
</g>
</svg>
