<svg width="21" height="20" viewBox="0 0 21 20" fill="none" xmlns="http://www.w3.org/2000/svg">
                        <path d="M10.1544 18.3332C14.7568 18.3332 18.4878 14.6022 18.4878 9.99984C18.4878 5.39746 14.7568 1.6665 10.1544 1.6665C5.55206 1.6665 1.8211 5.39746 1.8211 9.99984C1.8211 14.6022 5.55206 18.3332 10.1544 18.3332Z" stroke="#BABABA" stroke-width="1.5" stroke-linecap="round" stroke-linejoin="round"></path>
                        <path d="M6.8211 2.5H7.65443C6.02943 7.36667 6.02943 12.6333 7.65443 17.5H6.8211" stroke="#BABABA" stroke-width="1.5" stroke-linecap="round" stroke-linejoin="round"></path>
                        <path d="M12.6544 2.5C14.2794 7.36667 14.2794 12.6333 12.6544 17.5" stroke="#BABABA" stroke-width="1.5" stroke-linecap="round" stroke-linejoin="round"></path>
                        <path d="M2.65443 13.3333V12.5C7.5211 14.125 12.7878 14.125 17.6544 12.5V13.3333" stroke="#BABABA" stroke-width="1.5" stroke-linecap="round" stroke-linejoin="round"></path>
                        <path d="M2.65443 7.5C7.5211 5.875 12.7878 5.875 17.6544 7.5" stroke="#BABABA" stroke-width="1.5" stroke-linecap="round" stroke-linejoin="round"></path>
                    </svg>