<svg width="21" height="20" viewBox="0 0 21 20" fill="none" xmlns="http://www.w3.org/2000/svg">
<path opacity="0.4" d="M16.0444 16.5157C15.9623 16.516 15.881 16.4999 15.8052 16.4684C15.7293 16.4369 15.6605 16.3907 15.6028 16.3323C15.4865 16.2147 15.4214 16.056 15.4214 15.8907C15.4214 15.7253 15.4865 15.5666 15.6028 15.449C17.0476 14.0032 17.8592 12.0429 17.8592 9.99899C17.8592 7.95505 17.0476 5.99475 15.6028 4.54899C15.4946 4.43012 15.4364 4.27416 15.4403 4.11351C15.4441 3.95285 15.5097 3.79985 15.6234 3.68627C15.7371 3.57269 15.8901 3.50726 16.0508 3.50358C16.2114 3.4999 16.3673 3.55824 16.4861 3.66649C18.1632 5.3476 19.105 7.62524 19.105 9.99983C19.105 12.3744 18.1632 14.6521 16.4861 16.3332C16.4283 16.3914 16.3595 16.4375 16.2836 16.4688C16.2078 16.5001 16.1265 16.5161 16.0444 16.5157Z" fill="#11e311"/>
<path opacity="0.4" d="M4.26316 16.5155C4.18106 16.5158 4.09972 16.4997 4.02389 16.4682C3.94806 16.4368 3.87926 16.3905 3.8215 16.3321C2.14444 14.651 1.20261 12.3734 1.20261 9.99881C1.20261 7.62423 2.14444 5.34659 3.8215 3.66548C3.94067 3.55915 4.09602 3.50248 4.25566 3.5071C4.41531 3.51172 4.56713 3.57727 4.67995 3.69031C4.79278 3.80335 4.85805 3.95529 4.86236 4.11494C4.86668 4.2746 4.80972 4.42984 4.70316 4.54881C3.25835 5.99457 2.44675 7.95487 2.44675 9.99881C2.44675 12.0428 3.25835 14.0031 4.70316 15.4488C4.8194 15.5664 4.88458 15.7251 4.88458 15.8905C4.88458 16.0558 4.8194 16.2145 4.70316 16.3321C4.6456 16.3903 4.57707 16.4364 4.50154 16.4679C4.42601 16.4994 4.34499 16.5156 4.26316 16.5155Z" fill="#11e311"/>
<path opacity="0.4" d="M10.155 18.9248C9.14802 18.9229 8.14834 18.7539 7.19666 18.4248C7.11544 18.4005 7.04001 18.3599 6.97491 18.3055C6.90982 18.2512 6.8564 18.1843 6.8179 18.1087C6.7794 18.0332 6.75661 17.9506 6.75091 17.866C6.74521 17.7814 6.75671 17.6965 6.78472 17.6165C6.81273 17.5365 6.85667 17.4629 6.91388 17.4004C6.9711 17.3378 7.0404 17.2875 7.11761 17.2524C7.19482 17.2174 7.27833 17.1983 7.3631 17.1964C7.44787 17.1946 7.53214 17.2099 7.61082 17.2415C8.43124 17.5241 9.29309 17.6677 10.1608 17.6665C11.0258 17.6677 11.8849 17.5241 12.7025 17.2415C12.8595 17.1886 13.031 17.199 13.1804 17.2706C13.3298 17.3422 13.4454 17.4693 13.5025 17.6248C13.5575 17.7818 13.548 17.9541 13.4761 18.104C13.4043 18.254 13.2759 18.3693 13.1192 18.4248C12.1662 18.7569 11.1641 18.926 10.155 18.9248Z" fill="#11e311"/>
<path opacity="0.4" d="M12.9068 2.78362C12.836 2.78478 12.7655 2.77349 12.6985 2.75028C11.0479 2.18272 9.25497 2.18272 7.60434 2.75028C7.44733 2.80322 7.27586 2.79278 7.12644 2.72118C6.97702 2.64958 6.86145 2.52248 6.80434 2.36695C6.74938 2.21002 6.75886 2.0377 6.83071 1.88775C6.90256 1.7378 7.03092 1.62244 7.18767 1.56695C8.13977 1.23704 9.14088 1.07079 10.1485 1.07528C11.1545 1.07136 12.1538 1.23759 13.1043 1.56695C13.2611 1.62244 13.3894 1.7378 13.4613 1.88775C13.5331 2.0377 13.5426 2.21002 13.4877 2.36695C13.4473 2.48888 13.3694 2.59489 13.265 2.66976C13.1607 2.74462 13.0353 2.78448 12.9068 2.78362Z" fill="#11e311"/>
<path d="M7.43959 9.99646V8.60812C7.43959 6.87479 8.66459 6.16312 10.1646 7.03312L11.3729 7.73312L12.5813 8.43312C14.0813 9.29979 14.0813 10.7165 12.5813 11.5831L11.3729 12.2831L10.1646 12.9831C8.66459 13.8498 7.43959 13.1415 7.43959 11.4081V9.99646Z" fill="#11e311"/>
</svg>
