<svg width="24" height="28" viewBox="0 0 24 28" fill="none" xmlns="http://www.w3.org/2000/svg">
<path d="M22.1264 6.14995H15.1673L16.7063 4.56628C17.1912 4.06703 17.4636 3.39007 17.4636 2.68424C17.4636 1.9784 17.1912 1.30144 16.7063 0.802193C16.4669 0.553909 16.1819 0.357064 15.8679 0.223099C15.554 0.0891343 15.2172 0.0207204 14.8773 0.0218339V0.0218339C14.5374 0.0207204 14.2007 0.0891343 13.8867 0.223099C13.5727 0.357064 13.2877 0.553909 13.0483 0.802193L11.2193 2.68424C11.1153 2.79123 11.0329 2.91826 10.9766 3.05806C10.9203 3.19786 10.8913 3.3477 10.8913 3.49902C10.8913 3.80463 11.0093 4.09771 11.2193 4.31381C11.4293 4.5299 11.7142 4.6513 12.0112 4.6513C12.3081 4.6513 12.593 4.5299 12.803 4.31381L14.632 2.43177C14.6973 2.36389 14.7846 2.32305 14.8773 2.31701V2.31701C14.9237 2.31758 14.9695 2.32808 15.0117 2.34784C15.054 2.3676 15.0917 2.39618 15.1227 2.43177C15.1886 2.49903 15.2283 2.58887 15.2342 2.68424C15.2351 2.73222 15.2256 2.7798 15.2063 2.82349C15.187 2.86718 15.1584 2.90586 15.1227 2.9367L12.2454 5.89748C12.1754 5.96361 12.0838 6.0003 11.9888 6.0003C11.8938 6.0003 11.8023 5.96361 11.7323 5.89748L8.85502 2.9367C8.78905 2.86944 8.74937 2.77961 8.74349 2.68424C8.75142 2.5826 8.79047 2.48617 8.85502 2.40881C8.92039 2.34094 9.00769 2.3001 9.10037 2.29406C9.147 2.29312 9.19324 2.30294 9.2357 2.3228C9.27816 2.34265 9.31575 2.37205 9.34573 2.40881C9.4494 2.51638 9.57275 2.60175 9.70865 2.66001C9.84455 2.71827 9.99032 2.74827 10.1375 2.74827C10.2848 2.74827 10.4305 2.71827 10.5664 2.66001C10.7023 2.60175 10.8257 2.51638 10.9294 2.40881C11.0339 2.30213 11.1169 2.17521 11.1735 2.03536C11.2301 1.89552 11.2593 1.74552 11.2593 1.59403C11.2593 1.44253 11.2301 1.29254 11.1735 1.15269C11.1169 1.01285 11.0339 0.885924 10.9294 0.779241C10.5675 0.407123 10.1066 0.153734 9.60484 0.0510973C9.10309 -0.0515395 8.58302 0.00118305 8.11038 0.202602C7.63773 0.40402 7.23372 0.745094 6.94941 1.18272C6.66509 1.62034 6.51323 2.13487 6.51301 2.66128C6.51193 3.01105 6.57841 3.35754 6.7086 3.68064C6.83879 4.00373 7.03009 4.29697 7.27138 4.54333L8.81041 6.127H1.8513C1.36031 6.127 0.88942 6.3277 0.542234 6.68496C0.195047 7.04221 0 7.52675 0 8.03199L0 26.095C0 26.6002 0.195047 27.0848 0.542234 27.442C0.88942 27.7993 1.36031 28 1.8513 28H22.1487C22.6397 28 23.1106 27.7993 23.4578 27.442C23.805 27.0848 24 26.6002 24 26.095V8.03199C23.9884 7.52866 23.7858 7.05 23.4357 6.6983C23.0856 6.34661 22.6157 6.1498 22.1264 6.14995V6.14995ZM21.7472 25.7278H9.54647V11.8649C9.54647 11.5606 9.42897 11.2687 9.21982 11.0535C9.01067 10.8382 8.72701 10.7173 8.43123 10.7173C8.13545 10.7173 7.85178 10.8382 7.64263 11.0535C7.43348 11.2687 7.31599 11.5606 7.31599 11.8649V25.7278H2.18587V8.44512H14.9442V21.6424C14.9442 21.9467 15.0617 22.2386 15.2709 22.4538C15.48 22.669 15.7637 22.79 16.0595 22.79C16.3553 22.79 16.6389 22.669 16.8481 22.4538C17.0572 22.2386 17.1747 21.9467 17.1747 21.6424V8.44512H21.7249V25.7278H21.7472Z" fill="#00AA30"/>
</svg>
