<svg width="24" height="24" viewBox="0 0 24 24" fill="none" xmlns="http://www.w3.org/2000/svg">
<g clip-path="url(#clip0_2_123)">
<path fill-rule="evenodd" clip-rule="evenodd" d="M12 0C18.6258 0 24 5.33742 24.0368 12C24.0368 18.6258 18.6994 24 12.0368 24.0368C5.41104 24.0368 0.0368098 18.6994 0 12.0368C0 8.83436 1.25153 5.77914 3.53374 3.53374C5.77914 1.25153 8.83436 0 12 0ZM22.1595 12.6258L19.9141 10.3804L17.5951 11.1166L16.0123 16.0491L17.4479 18.0368L20.4663 17.6687C21.4969 16.1595 22.0491 14.4294 22.1595 12.6258ZM19.3988 8.65031L19.9877 5.66871C19.7301 5.37423 19.4724 5.07975 19.2147 4.78528C18.2209 3.79141 17.0429 3.01841 15.7546 2.50307L12.9202 3.93865V6.3681L17.1166 9.42331L19.3988 8.65031ZM21.1288 7.43558L20.7975 9.16564L22.0859 10.4908C21.9387 9.42331 21.6074 8.39264 21.1288 7.43558ZM11.0798 3.90184L8.46626 2.42945C7.06748 2.94479 5.81595 3.7546 4.78528 4.78528C4.56442 5.00614 4.34356 5.2638 4.1227 5.52147L4.60123 8.65031L6.92025 9.3865L11.1166 6.33129L11.0798 3.90184ZM10.4908 1.91411L12.0368 2.76074L13.6933 1.91411C13.1411 1.84049 12.589 1.76687 12.0368 1.76687C11.4847 1.80368 10.9693 1.84049 10.4908 1.91411ZM4.01227 10.3436L1.80368 12.4049C1.8773 14.2086 2.42945 15.9387 3.3865 17.4479L6.51534 17.9632L7.95092 16.0123L6.3681 11.0798C6.3681 11.1166 4.01227 10.3436 4.01227 10.3436ZM1.95092 10.3067L3.23926 9.09202L2.94479 7.25153C2.46626 8.2454 2.09816 9.27607 1.95092 10.3067ZM7.98773 19.0675L9.27607 21.8282C11.0061 22.3067 12.8466 22.3436 14.5767 21.9018L16.0491 19.0675L14.6135 17.1166H9.46012L7.98773 19.0675ZM7.28834 21.0552L6.55215 19.4724L4.71166 19.1779C5.48466 19.9141 6.33129 20.5399 7.28834 21.0552ZM19.1411 19.2515L17.411 19.4724L16.5644 21.1288C17.5215 20.6503 18.3681 20.0245 19.1411 19.2515ZM12 7.91411L8.13497 10.7117L9.60736 15.2393H14.3926L15.865 10.6748L12 7.91411Z" fill="#00AA30"/>
</g>
<defs>
<clipPath id="clip0_2_123">
<rect width="24" height="24" fill="white"/>
</clipPath>
</defs>
</svg>
