<svg width="28" height="28" viewBox="0 0 28 28" fill="none" xmlns="http://www.w3.org/2000/svg">
<g clip-path="url(#clip0_2_166)">
<path d="M27.4157 21.4667L27.023 20.7248L26.9739 20.6769L24.8881 17.3504H24.9126C25.058 17.3356 25.1989 17.2927 25.3271 17.2243C25.4554 17.156 25.5684 17.0634 25.6597 16.9521C25.751 16.8408 25.8188 16.7129 25.859 16.5759C25.8993 16.4389 25.9112 16.2954 25.8942 16.1538C25.882 16.0131 25.841 15.8762 25.7734 15.7513C25.7059 15.6263 25.6133 15.5159 25.5011 15.4266C25.3889 15.3373 25.2594 15.2709 25.1204 15.2314C24.9813 15.1919 24.8356 15.18 24.6918 15.1966L23.5384 15.2684L23.0476 14.5026H23.4893C23.7822 14.474 24.0514 14.3331 24.2378 14.111C24.4242 13.8888 24.5125 13.6036 24.4832 13.3179C24.4539 13.0323 24.3094 12.7698 24.0816 12.588C23.8538 12.4062 23.5613 12.3202 23.2685 12.3487L21.747 12.4684L21.4525 12.0137H21.6979C21.8431 12.0017 21.9845 11.9617 22.1138 11.8961C22.2431 11.8306 22.3579 11.7407 22.4514 11.6317C22.5449 11.5227 22.6154 11.3967 22.6588 11.261C22.7021 11.1253 22.7175 10.9826 22.704 10.841C22.673 10.5574 22.5303 10.2967 22.306 10.1136C22.0817 9.93061 21.7933 9.83962 21.5016 9.85983L20.1274 9.97949L18.7041 7.75385C18.5771 7.55845 18.3902 7.40705 18.1699 7.32113C17.9497 7.23521 17.7073 7.21915 17.4771 7.27521C12.7655 8.49573 12.3483 7.34701 10.6305 3.06325C10.4342 2.60855 10.2625 2.10598 10.0416 1.62735C10.04 1.60891 10.0313 1.59176 10.0171 1.57949C9.88906 1.24871 9.68891 0.948991 9.43045 0.701068C9.17199 0.453145 8.86139 0.262934 8.52014 0.143591C8.18997 0.0235074 7.83716 -0.0258232 7.4857 -0.00104578C7.13424 0.0237316 6.79237 0.122036 6.48335 0.28718C2.97418 2.15385 0.201203 5.71966 0.00488633 8.63932C-0.0441929 9.47692 0.274822 10.6735 1.03555 11.3197L1.72266 11.8462L1.15825 12.4684C1.05823 12.5696 0.98002 12.6894 0.928226 12.8206C0.876433 12.9518 0.852105 13.0918 0.85668 13.2323C0.861254 13.3728 0.894637 13.511 0.954861 13.6388C1.01508 13.7665 1.10093 13.8812 1.20733 13.9761C1.35652 14.1006 1.5327 14.1906 1.72266 14.2393C1.91115 14.2798 2.10712 14.2724 2.29185 14.2179C2.47659 14.1635 2.64392 14.0637 2.77786 13.9282L3.44043 13.2103L9.69804 18.188L9.08455 18.906C8.89918 19.1295 8.81081 19.4148 8.83832 19.701C8.86583 19.9872 9.00705 20.2516 9.23179 20.4376C9.36289 20.5373 9.51306 20.6105 9.6735 20.653C9.87218 20.6919 10.078 20.6768 10.2685 20.6093C10.4589 20.5417 10.6266 20.4244 10.7532 20.2701L11.3913 19.5282L12.8637 20.7009L12.2256 21.4188C12.049 21.6475 11.9685 21.9332 12.0004 22.2178C12.0323 22.5024 12.1743 22.7644 12.3974 22.9504C12.5285 23.0501 12.6787 23.1233 12.8391 23.1658C13.0378 23.2105 13.2455 23.1982 13.4371 23.1302C13.6287 23.0623 13.7961 22.9416 13.9189 22.7829L14.5569 22.041L16.0293 23.2137L15.3912 23.9316C15.2172 24.1595 15.1359 24.4421 15.1631 24.725C15.1903 25.0079 15.3241 25.2709 15.5385 25.4632C15.6809 25.5592 15.8384 25.632 16.0047 25.6786C16.2012 25.7203 16.4055 25.7089 16.5958 25.6456C16.7861 25.5824 16.955 25.4697 17.0845 25.3197L17.7225 24.5538L20.839 27.0427C21.3721 27.4565 21.9921 27.7507 22.655 27.9043C23.188 28.0255 23.7406 28.0414 24.2801 27.951C24.8196 27.8606 25.3351 27.6657 25.796 27.3778C27.9555 26.2051 28.5936 23.5487 27.4157 21.4667ZM24.7899 25.559C24.4167 25.7831 23.9799 25.8854 23.5431 25.8509C23.1062 25.8165 22.692 25.6472 22.3605 25.3675L18.4096 22.2325L15.244 19.7197L12.0784 17.2068L2.55701 9.69231C2.38134 9.43959 2.3031 9.13438 2.33615 8.83077V8.83077C2.48339 6.70086 4.83919 3.73333 7.63671 2.24957C7.68577 2.21314 7.7471 2.19605 7.80849 2.20171H7.85757C7.90118 2.20403 7.94311 2.21891 7.97806 2.24447C8.013 2.27003 8.03939 2.30512 8.05388 2.3453V2.39316L8.6183 3.82906C10.287 8.04103 11.3913 10.841 17.3053 9.57265L17.698 10.2188L15.1949 10.4581C15.0485 10.4669 14.9054 10.5047 14.7744 10.5693C14.6435 10.6338 14.5274 10.7237 14.4332 10.8334C14.3391 10.9431 14.2688 11.0704 14.2268 11.2075C14.1848 11.3446 14.1718 11.4886 14.1888 11.6308C14.2053 11.8598 14.2982 12.0773 14.4533 12.2502C14.6083 12.423 14.8171 12.5416 15.0477 12.588H15.3912L19.0231 12.253L19.3176 12.7077L17.3299 12.8991C17.1846 12.9112 17.0433 12.9511 16.914 13.0167C16.7846 13.0822 16.6699 13.1721 16.5764 13.2811C16.4828 13.3901 16.4124 13.5161 16.369 13.6518C16.3256 13.7875 16.3103 13.9303 16.3237 14.0718C16.3477 14.2984 16.4432 14.5122 16.5971 14.6836C16.7509 14.8551 16.9555 14.9758 17.1826 15.0291H17.5262L20.6182 14.7897L21.0844 15.5556L19.6611 15.6991C19.5147 15.7079 19.3716 15.7458 19.2406 15.8103C19.1097 15.8748 18.9936 15.9647 18.8994 16.0744C18.8053 16.1842 18.735 16.3115 18.693 16.4486C18.651 16.5857 18.6381 16.7297 18.655 16.8718C18.679 17.0984 18.7745 17.3122 18.9283 17.4836C19.0822 17.6551 19.2868 17.7758 19.5139 17.8291H19.8574L22.4341 17.6137L25.1089 21.8017L25.5016 22.4957C26.0905 23.5966 25.796 24.9607 24.7899 25.559Z" fill="url(#paint0_linear_2_166)"/>
<path d="M21.6965 20.5812L7.61072 9.42906C7.49954 9.34106 7.37168 9.27528 7.23443 9.23548C7.09718 9.19567 6.95324 9.18262 6.81082 9.19706C6.6684 9.21151 6.53029 9.25317 6.40438 9.31966C6.27847 9.38616 6.16723 9.47619 6.07699 9.58461C5.98676 9.69304 5.91931 9.81773 5.87849 9.95158C5.83767 10.0854 5.82429 10.2258 5.8391 10.3647C5.85391 10.5036 5.89663 10.6383 5.96482 10.7611C6.033 10.8839 6.12532 10.9923 6.2365 11.0803L20.3222 22.2325C20.447 22.3417 20.5996 22.4161 20.764 22.4479C20.9638 22.5002 21.1751 22.4941 21.3714 22.4303C21.5678 22.3665 21.7406 22.2477 21.8682 22.0889C22.0433 21.864 22.1231 21.5822 22.0911 21.3016C22.0592 21.021 21.9179 20.7631 21.6965 20.5812V20.5812Z" fill="url(#paint1_linear_2_166)"/>
</g>
<defs>
<linearGradient id="paint0_linear_2_166" x1="14.0047" y1="29.5867" x2="14.0047" y2="-2.54632" gradientUnits="userSpaceOnUse">
<stop offset="1" stop-color="#00AA30"/>
</linearGradient>
<linearGradient id="paint1_linear_2_166" x1="13.964" y1="29.5867" x2="13.964" y2="-2.54633" gradientUnits="userSpaceOnUse">
<stop offset="1" stop-color="#00AA30"/>
</linearGradient>
<clipPath id="clip0_2_166">
<rect width="27.9997" height="28" fill="white"/>
</clipPath>
</defs>
</svg>
