<?xml version="1.0" encoding="utf-8"?>
<!-- Generator: Adobe Illustrator 28.0.0, SVG Export Plug-In . SVG Version: 6.00 Build 0)  -->
<svg version="1.1" id="Layer_1" xmlns="http://www.w3.org/2000/svg" xmlns:xlink="http://www.w3.org/1999/xlink" x="0px" y="0px"
	 viewBox="0 0 17 17" style="enable-background:new 0 0 17 17;" xml:space="preserve">
<style type="text/css">
	.st0{fill:#53DF35;}
	.st1{fill:#11E312;}
</style>
<path class="st0" d="M8.54,0.77c-4.57,0-8.3,3.59-8.3,8c0,4.41,3.72,8,8.3,8c4.58,0,8.3-3.59,8.3-8C16.84,4.36,13.12,0.77,8.54,0.77
	z M8.54,16c-4.13,0-7.5-3.24-7.5-7.23c0-3.99,3.36-7.23,7.5-7.23c4.13,0,7.5,3.24,7.5,7.23C16.04,12.76,12.67,16,8.54,16z"/>
<g>
	<path class="st1" d="M9.64,10.43c0-0.26-0.08-0.48-0.25-0.65C9.22,9.61,8.95,9.46,8.56,9.32c-0.39-0.14-0.69-0.26-0.9-0.38
		c-0.71-0.38-1.07-0.95-1.07-1.7c0-0.51,0.15-0.93,0.46-1.26C7.36,5.65,7.78,5.46,8.31,5.4v-1h0.74v1.01
		c0.53,0.08,0.95,0.3,1.24,0.68c0.29,0.38,0.44,0.86,0.44,1.47H9.61c0-0.39-0.09-0.69-0.26-0.91C9.18,6.42,8.94,6.3,8.64,6.3
		c-0.29,0-0.52,0.08-0.69,0.24C7.79,6.7,7.7,6.93,7.7,7.23c0,0.27,0.08,0.48,0.25,0.64c0.16,0.16,0.44,0.31,0.83,0.46
		c0.39,0.14,0.7,0.28,0.92,0.4c0.22,0.12,0.41,0.26,0.57,0.42c0.15,0.16,0.27,0.34,0.35,0.54c0.08,0.21,0.12,0.45,0.12,0.72
		c0,0.52-0.16,0.94-0.48,1.26s-0.76,0.51-1.33,0.57v0.9H8.22v-0.89c-0.61-0.07-1.07-0.29-1.4-0.65s-0.49-0.86-0.49-1.46h1.12
		c0,0.39,0.1,0.69,0.29,0.9c0.19,0.21,0.47,0.32,0.83,0.32c0.35,0,0.62-0.08,0.8-0.25C9.55,10.93,9.64,10.71,9.64,10.43z"/>
</g>
</svg>
