<svg id="Layer_1" data-name="Layer 1" xmlns="http://www.w3.org/2000/svg" viewBox="0 0 178 57"><defs><style>.cls-1{fill:#fff;}</style></defs><polygon class="cls-1" points="29.82 6.34 29.82 27.65 21.97 27.34 21.97 23.94 18.35 23.94 18.35 27.2 10.5 26.89 10.5 6.34 18.35 6.34 18.35 16.08 21.97 16.08 21.97 6.34 29.82 6.34"/><path class="cls-1" d="M48.26,6.34H38.67l-5.2,21.45L53,28.56ZM41.53,25.25l1.83-11.33,1.51,11.33Z"/><path class="cls-1" d="M63.66,21.77s.07,6.58,4.78,6.32a4.09,4.09,0,0,0,3.76-1.93v3.15l-15.07-.59a23.47,23.47,0,0,1-.83-13.49S59.88,2.58,72.2,6.58V15s-2-2.82-5-1.71C67.17,13.28,63.22,14.29,63.66,21.77Z"/><polygon class="cls-1" points="90.3 20.38 94.92 30.2 86.7 29.88 83.81 22.07 83.81 29.77 76.27 29.47 76.27 6.34 83.81 6.34 83.81 18.33 88.19 6.34 96.58 6.34 90.3 20.38"/><path class="cls-1" d="M113,30.91,98.8,30.35V25.18a9.47,9.47,0,0,0,3.7,3.08,3,3,0,0,0,3.11-.33c2-1.58-.92-3.81-2.11-4.59a9.59,9.59,0,0,1-1.26-.94c-7.76-6.85,0-14.79,0-14.79,5-3.81,11-.35,11-.35v8.88a7,7,0,0,0-2.4-2.5,3.61,3.61,0,0,0-2.75-.48A1.4,1.4,0,0,0,106.89,15,2.6,2.6,0,0,0,108,16.57a26.84,26.84,0,0,1,3.19,2.54,9.33,9.33,0,0,1,2.9,5.69A9.84,9.84,0,0,1,113,30.91Z"/><path class="cls-1" d="M136.55,30.57h0L131.41,6.34h-9.6l-5.22,21.55L116.1,31l20.72.82Zm-11.88-5.32,1.84-11.33L128,25.25Z"/><polygon class="cls-1" points="170.16 6.34 164.6 32.94 156.21 32.61 153.79 17.7 152.17 32.34 152.16 32.45 143.25 32.1 137.36 6.34 145.54 6.34 147.8 24.31 150.34 6.34 157.32 6.34 159.93 24.31 162.4 6.34 170.16 6.34"/><polygon class="cls-1" points="15.74 28.02 15.74 35.9 7.84 35.9 7.84 27.71 15.74 28.02"/><polygon class="cls-1" points="26.99 28.45 26.99 35.9 19.09 35.9 19.09 28.15 26.99 28.45"/><polygon class="cls-1" points="51.65 35.9 43.61 35.9 42.9 32.16 37.68 32.16 37.08 35.9 29.07 35.9 30.79 28.6 50.38 29.36 51.65 35.9"/><path class="cls-1" d="M69.57,30.11v5.26c-10.37,3.68-14.1-3.41-15-5.85Z"/><polygon class="cls-1" points="81.3 30.56 81.3 35.9 73.33 35.9 73.33 30.25 81.3 30.56"/><polygon class="cls-1" points="94.68 35.9 85.9 35.9 83.86 30.66 92.45 30.99 94.68 35.9"/><path class="cls-1" d="M110.3,31.69c-4.17,7.64-14,3.61-14,3.61V31.14Z"/><polygon class="cls-1" points="121.11 32.1 120.45 35.9 111.94 35.9 113.1 31.8 121.11 32.1"/><polygon class="cls-1" points="135.04 35.9 126.53 35.9 125.9 32.29 134.11 32.61 135.04 35.9"/><polygon class="cls-1" points="149.35 33.2 148.97 35.9 141.14 35.9 140.48 32.86 149.35 33.2"/><polygon class="cls-1" points="162.08 33.7 161.6 35.9 153.77 35.9 153.41 33.36 162.08 33.7"/><path class="cls-1" d="M16.26,45V47h3.49a2.88,2.88,0,0,1-3,2.25,3.2,3.2,0,0,1-3.29-3.46,3.19,3.19,0,0,1,3.29-3.44,2.88,2.88,0,0,1,2.83,1.64l.12.25h2.08l-.2-.59a4.85,4.85,0,0,0-4.81-3.29,5.23,5.23,0,0,0-5.4,5.43,5.2,5.2,0,0,0,5.38,5.47c3.18,0,5.16-2.18,5.17-5.69V45Z"/><path class="cls-1" d="M161,45V47h3.48a2.87,2.87,0,0,1-3,2.25,3.2,3.2,0,0,1-3.3-3.46,3.19,3.19,0,0,1,3.3-3.44,2.88,2.88,0,0,1,2.82,1.64l.12.25h2.08l-.2-.59a4.85,4.85,0,0,0-4.81-3.29,5.23,5.23,0,0,0-5.39,5.43,5.19,5.19,0,0,0,5.38,5.47c3.17,0,5.15-2.18,5.17-5.69V45Z"/><path class="cls-1" d="M46.71,40.56h-1.8L40.83,51.21h2.24l1-2.74h3.51l1,2.74h2.23Zm-.92,3.14,1.05,2.84H44.75Z"/><path class="cls-1" d="M82.26,40.92H80l-1.78,4.84c-.22.62-.41,1.18-.58,1.72-.16-.53-.34-1.09-.55-1.72l-1.7-4.84H73.07l-.71,10.29h2l.28-4.45c0-.48.06-.95.08-1.41.1.33.21.67.34,1l1.63,4.78h1.55l1.77-4.85.41-1.17c0,.5,0,1,.08,1.53l.25,4.55h2.1Z"/><rect class="cls-1" x="94.99" y="40.56" width="2.04" height="10.65"/><polygon class="cls-1" points="131.97 40.56 131.97 47.66 127.43 40.56 125.25 40.56 125.25 51.2 127.29 51.2 127.29 44.05 131.91 51.2 134.01 51.2 134.01 40.56 131.97 40.56"/></svg>