<svg width="104" height="100" viewBox="0 0 104 100" fill="none" xmlns="http://www.w3.org/2000/svg">
<path opacity="0.15" d="M81.2299 49.8009C81.2299 65.5522 67.9896 78.3514 51.6188 78.3514C35.2481 78.3514 22.0078 65.5522 22.0078 49.8009C22.0078 34.0496 35.2481 21.2503 51.6188 21.2503C67.9896 21.2503 81.2299 34.0496 81.2299 49.8009Z" stroke="#FFDD55"/>
<path opacity="0.15" d="M91.9841 49.801C91.9841 71.2823 73.9291 88.7267 51.6191 88.7267C29.3091 88.7267 11.2542 71.2823 11.2542 49.801C11.2542 28.3196 29.3091 10.8752 51.6191 10.8752C73.9291 10.8752 91.9841 28.3196 91.9841 49.801Z" stroke="#FFDD55"/>
<path opacity="0.05" d="M102.738 49.801C102.738 77.0124 79.8681 99.1019 51.6189 99.1019C23.3697 99.1019 0.5 77.0124 0.5 49.801C0.5 22.5895 23.3697 0.5 51.6189 0.5C79.8681 0.5 102.738 22.5895 102.738 49.801Z" stroke="#FFDD55"/>
<ellipse cx="51.619" cy="49.8009" rx="21.5079" ry="20.7504" fill="#FFDD55"/>
<path d="M64.7714 46.1372C67.2191 47.712 67.2191 51.2903 64.7714 52.8651L49.9143 62.4238C47.2523 64.1364 43.75 62.2252 43.75 59.0598L43.75 39.9425C43.75 36.7772 47.2523 34.8659 49.9143 36.5786L64.7714 46.1372Z" fill="#6A5604"/>
</svg>
