<svg id="Layer_1" data-name="Layer 1" xmlns="http://www.w3.org/2000/svg" width="113.2" height="31.9" viewBox="0 0 113.2 31.9">
  <defs>
    <style>
      .cls-1 {
        fill: #0289c3;
      }

      .cls-2 {
        fill: #fff;
      }

      .cls-3 {
        fill: #ee3c38;
      }
    </style>
  </defs>
  <g>
    <g>
      <path class="cls-1" d="M7.8,7.8a6.1,6.1,0,0,0-5.6,4.4l-2,6.7a4.3,4.3,0,0,0,.6,3.8,4.2,4.2,0,0,0,3.3,1.4H54.9a10.3,10.3,0,0,1,.4-3L59,9a6.1,6.1,0,0,1,.5-1.2Z"/>
      <path class="cls-1" d="M103.1,7.8a7,7,0,0,1-.3,2.9L99.2,22.6l-.6,1.5h6.1c2.5,0,5.7-2,6.3-4.5l2-6.5a4.3,4.3,0,0,0-.7-3.8,4.3,4.3,0,0,0-3.4-1.5Z"/>
      <path class="cls-2" d="M36.3,20.8H34c-.1,0-.2,0-.1-.1l.6-2.2a.1.1,0,0,0-.1-.1,1.8,1.8,0,0,1-1.7-1.9,4.3,4.3,0,0,1,.1-.5l1.5-4.9h2.4L35.3,16h2.4l1.5-4.9h2.4L40.1,16A3.5,3.5,0,0,1,37,18.4h-.1Z"/>
      <path class="cls-2" d="M48.1,13.5A3.8,3.8,0,0,0,44.9,16l-1.4,4.7c0,.1,0,.2.1.2h2.3c.2-.5,1.2-4,1.5-4.8h2.4l-1.5,4.7a.3.3,0,0,0,.1.2h2.4L52.3,16c.4-1.4-.3-2.5-1.6-2.5Z"/>
      <path class="cls-2" d="M29,16H26.6l.7-2.5h2.5Zm1.6-4.9H28.1a3.6,3.6,0,0,0-3.2,2.4l-2.2,7.2c0,.1,0,.1.1.1H25a.1.1,0,0,0,.1-.1h0l.9-2.8h2.4a.1.1,0,0,1,.1.1h0l-.9,2.7a.3.3,0,0,0,.1.2H30l2.2-7.3A1.7,1.7,0,0,0,30.6,11.1Z"/>
      <path class="cls-2" d="M11.9,16H9.4l.8-2.5h2.5Zm1.5-4.9H8.5l-3,9.6c0,.1.1.1.2.1H7.9a.1.1,0,0,0,.1-.1H8l.7-2.2c0-.1,0-.1.1-.1h2.3A3.7,3.7,0,0,0,14.3,16l.8-2.5A1.7,1.7,0,0,0,13.4,11.1Z"/>
      <path class="cls-2" d="M44.9,14H42.2l.8-2.9h2.8Z"/>
      <path class="cls-2" d="M14,20.8l3-9.7h2.4l-2.1,7.1h2.4l.7-2.3h2.3c.1,0,.1,0,.1.1l-1.5,4.7Z"/>
    </g>
    <g>
      <path d="M105.6,7.2a6.8,6.8,0,0,0-1.4-4.1A8.3,8.3,0,0,0,97.5,0H70.1c-4.4,0-8.9,3.1-10.9,7.2a7.8,7.8,0,0,0-.5,1.4l-4,13a8.8,8.8,0,0,0-.4,3.2,6.8,6.8,0,0,0,1.4,4.1,7.4,7.4,0,0,0,6.2,3H89.5a13.4,13.4,0,0,0,11.2-7.1,8.7,8.7,0,0,0,.7-1.7l3.8-12.6A9.1,9.1,0,0,0,105.6,7.2Z"/>
      <path class="cls-3" d="M80.8,9.2H67.9v.2L63.7,22.5c0,.1,0,.2.1.2H70l1.2-3.8h-3l1.7-5.2h9.7l-2.8,9.2c-1.2,3.7-4.9,6.7-8.5,6.7H61.5c-3.7,0-5.7-3-4.6-6.7L61.1,9.1a10,10,0,0,1,8.8-6.5H82.8a.1.1,0,0,1,.1.1l-2,6.5Z"/>
      <path class="cls-3" d="M92.3,22.7H85.9a.3.3,0,0,1-.1-.2L89.9,9.3h6.5l-4,13.3ZM98.4,2.6H92.2a9.8,9.8,0,0,0-9,6.6l-4,13.2c-1.2,3.8.8,6.9,4.6,6.9H90a10.4,10.4,0,0,0,9.2-6.9l4-13.2C104.4,5.4,102.2,2.6,98.4,2.6Z"/>
    </g>
  </g>
</svg>
