<?xml version="1.0" encoding="utf-8"?>
<!-- Generator: Adobe Illustrator 26.0.1, SVG Export Plug-In . SVG Version: 6.00 Build 0)  -->
<svg version="1.1" id="Layer_1" xmlns="http://www.w3.org/2000/svg" xmlns:xlink="http://www.w3.org/1999/xlink" x="0px" y="0px"
	 viewBox="0 0 595.3 841.9" style="enable-background:new 0 0 595.3 841.9;" xml:space="preserve">
<style type="text/css">
	.st0{fill:#040404;}
</style>
<g>
	<path class="st0" d="M297.3,654c-76,0-151.9,0.1-227.9,0c-29.6,0-51.3-25.1-51.2-51.5c0.4-108.2,0.2-216.4,0.2-324.7
		c0-29.2,23-52.3,52.3-52.4c10.8,0,21.5,0,32.3,0c7.1,0,10.5,3.5,10.5,10.6c0,3.5,0,7.1,0,10.6c0,7-3.3,10.2-10.4,10.2
		c-10,0-20.1,0-30.1,0c-12.7,0-22.3,9.5-22.3,22.1c0,107.5,0,215,0,322.5c0,11.5,8.9,20.4,20.4,20.4c151.1,0,302.2,0,453.3,0
		c11.5,0,19.9-8.6,20.4-20.9c0.1-2,0-4,0-5.9c0-104.5-0.1-209.1,0.1-313.6c0-12.8-8.3-25.7-24.7-24.6c-9.9,0.6-19.8,0.1-29.7,0.1
		c-6.6,0-10.3-3.6-10.2-10.2c0.1-4.4,0.3-8.7,0.7-13.1c0.5-5,3.8-7.9,8.4-7.9c16.1,0,32.3-2.2,48.2,1.4
		c22.7,5.1,39.4,26.6,39.4,49.9c0,108.5,0,217,0,325.5c0,28.2-23.1,51.5-51.3,51.6C449.6,654.1,373.5,654,297.3,654
		C297.3,654,297.3,654,297.3,654z"/>
	<path class="st0" d="M78.2,453.6c0.6-48.3,38.8-86.5,86.2-85.5c46.1,1,87,39.4,84,91.3c-2.5,44.4-38.8,81.4-86.4,80.6
		C115.7,539.2,78.7,502.7,78.2,453.6z M122.4,452c12,0.1,21.6-9.1,21.6-20.6c0.1-11.9-9.4-21.8-21.1-21.9
		c-12.3-0.1-22.2,9.4-22.2,21.2C100.8,442.5,110.4,452,122.4,452z M126.7,508c12.2,0,21.6-9.2,21.6-21.1c0-11.6-10-21.4-21.7-21.3
		c-11.5,0.1-21.4,10-21.3,21.3C105.4,498.3,115.1,508,126.7,508z M195.1,407c0.1-11.8-9.3-21.2-21-21.3c-12,0-21.5,9-21.7,20.6
		c-0.2,12.1,9.4,21.8,21.5,21.9C185.5,428.3,195,418.8,195.1,407z M191.5,451.2c0.1,11.8,9.5,21,21.4,21c12-0.1,21.2-9.6,21.2-21.7
		c-0.1-11.6-9.6-20.7-21.7-20.6C200.4,429.9,191.4,439.1,191.5,451.2z M202.6,499.7c0-11.6-9.7-21.1-21.3-21.1
		c-11.8,0-21.2,9.4-21.1,21.2c0,11.3,9.7,20.8,21.1,20.9C193,520.8,202.7,511.3,202.6,499.7z M164.9,440
		c-7.8-0.1-14.8,6.7-14.8,14.3c-0.1,7.5,6.8,14.5,14.2,14.6c7.5,0.1,14.2-7,14.2-14.9C178.3,446.6,172,440.1,164.9,440z"/>
	<path class="st0" d="M486.9,529c-0.1,0.1-0.3,0.1-0.8,0.1c-0.7,0-1.5,0-2.2,0c-10.8,0-21.5,0-32.3,0c0-42.5,0-85,0-127.5
		c-8,6.1-16,12.2-24,18.3c-3.5,2.6-7.8,5.4-11.9,3.8c-0.6-0.2-1.2-0.6-1.4-1.1c-0.2-0.4-0.2-0.8-0.2-1.2c-0.1-3.4-0.2-6.9-0.3-10.3
		c-0.1-3.9-0.2-7.9,1-11.6c2.5-7.2,9.5-11.7,15.9-15.9c7.7-5.1,15-10.7,22-16.7c2-1.7,4-3.4,6.4-4.2c1.9-0.6,3.9-0.6,5.9-0.6
		c7.4,0,14.7,0,22.1,0c0,11.4,0,22.7,0,34.1s0,22.7,0,34.1s0,22.7,0,34.1s0,22.7,0,34.1c0,5.7,0,11.4,0,17c0,2.8,0,5.7,0,8.5
		c0,1.4,0,2.8,0,4.3C487,528.6,487,528.8,486.9,529z"/>
	<path class="st0" d="M309.6,439.4c0,46.5,0,93.1,0,139.6c0,8.4-4.1,12.9-11.6,12.9c-7.7,0-12.1-4.7-12.1-13.1
		c0-92.8,0-185.6,0-278.4c0-9.9,7.2-15.5,16.1-12.7c5.2,1.6,7.6,5,7.6,10.8C309.6,345.5,309.6,392.4,309.6,439.4z"/>
	<path class="st0" d="M296.4,256.8c-26.7,0-53.4-0.2-80.1,0.1c-7.7,0.1-12.9-3.9-12-11.9c0.3-2.9,0-5.9,0.1-8.9
		c0-7.3,3.6-10.8,11-10.8c52.2,0,104.3,0,156.5,0c2.7,0,5.4-0.1,8.1,0c5.8,0.2,9.4,4,9.5,9.7c0,3.8,0,7.6,0,11.4
		c-0.1,6.6-3.6,10.2-10.2,10.2C351.6,256.8,324,256.8,296.4,256.8z"/>
	<path class="st0" d="M139.4,242.2c0-10.7-0.2-21.5,0.1-32.2c0.1-4,0.7-8.2,2.2-11.9c2.7-6.7,7.9-10.5,15.5-10.2
		c3,0.1,6-0.2,8.9,0.4c8.5,1.9,13.6,9.7,13.6,20.8c0,17.5,0,35.1,0,52.6c0,4.5,0.1,9.1,0,13.6c-0.4,11.8-7.6,18.3-19.4,18.8
		c-9,0.4-15.9-2.4-19.3-11c-1.1-2.8-1.3-6-1.4-9.1C139.3,263.4,139.4,252.8,139.4,242.2C139.4,242.2,139.4,242.2,139.4,242.2z"/>
	<path class="st0" d="M455.6,239.9c0,11,0,22.1,0,33.1c-0.1,9.1-6,18.4-13.3,20.9c-12.2,4.2-25.1-3.9-25.6-17.3
		c-0.9-21.6-0.7-43.3-0.9-64.9c0-2.9,0.3-5.9,0.8-8.8c1.8-10,10.5-16.1,21.2-15c9.6,1,17.8,9.6,17.8,18.9
		C455.6,217.9,455.6,228.9,455.6,239.9z"/>
	<path class="st0" d="M371.3,440.1c9.9,0,19.8,0,29.7,0c4.5,0,6,1.6,6.1,6.1c0.1,5.4,0.1,10.7,0,16.1c0,5.1-2.4,7.4-7.5,7.4
		c-19,0-37.9,0-56.9,0c-5.2,0-6.9-1.6-6.9-6.7c0-5.8,0-11.6,0-17.4c0-4.8,0.8-5.5,5.8-5.6C351.5,440,361.4,440.1,371.3,440.1z"/>
</g>
</svg>
