<svg xmlns="http://www.w3.org/2000/svg" xmlns:xlink="http://www.w3.org/1999/xlink" width="84.465" height="57.557" viewBox="0 0 84.465 57.557">
  <defs>
    <clipPath id="clip-path">
      <rect id="Rectangle_3883" data-name="Rectangle 3883" width="81.033" height="52.031" fill="none"/>
    </clipPath>
  </defs>
  <g id="Group_3670" data-name="Group 3670" transform="matrix(0.998, -0.07, 0.07, 0.998, 0, 5.653)">
    <g id="Group_3669" data-name="Group 3669" transform="translate(0 0)" clip-path="url(#clip-path)">
      <path id="Path_5246" data-name="Path 5246" d="M59.921,8.264a12.284,12.284,0,0,1,1.2-.635,24.593,24.593,0,0,1,2.641-.89L63.5,3.212a4.358,4.358,0,0,1-3.182,1.371,5.078,5.078,0,0,0-.394,3.681" transform="translate(-9.29 -0.5)" fill="#ffa47c"/>
      <path id="Path_5247" data-name="Path 5247" d="M24.113,21.221a4.05,4.05,0,0,0-3.024-4.313c-3.313-.9-8.192,3.563-14.511,2.617-2.36-.354-4.763-4.768-4.763-4.768a5.411,5.411,0,0,0-.285,3.015,5.232,5.232,0,0,0,.95,2.172c.055.176-1.062-.286-1.656-.911a5.776,5.776,0,0,1-.743-1.389,4.768,4.768,0,0,0,1.867,4.672c.158.132-1.682.573-1.682.573a8.633,8.633,0,0,0,2.868,2.668,16.875,16.875,0,0,0,3.877,1.49L4.13,28.428a37.088,37.088,0,0,0,3.938.334,10.985,10.985,0,0,0,2.217-.741L9.028,29.715s1.781.529,5.881-1.87a86.561,86.561,0,0,0,9.2-6.624" transform="translate(0 -2.296)" fill="#656f92"/>
      <path id="Path_5248" data-name="Path 5248" d="M70.269,12.454c.274.183.133,4.074-3.036,4.868s-6.532.306-7.865,1.557-2.129,2.373-3.818,2.228a4.626,4.626,0,0,1-1.926-.611s1.96.228,2.548-.182a9.406,9.406,0,0,0,1.907-2.425,3.534,3.534,0,0,1,1.188-.87,3.96,3.96,0,0,0-2.1.205,4.152,4.152,0,0,1-2.284.641c-.672-.113-1.262-1.031-1.262-1.031a1.886,1.886,0,0,0,1.553.122c.622-.366,1.9-1.526,3.341-1.465s.668-1.057-.6-1.219C57.38,14.2,56.494,15,56.494,15a1.737,1.737,0,0,1,2.025-1.339c4.678.662,5.232-.747,5.232-.747Z" transform="translate(-8.343 -1.937)" fill="#656f92"/>
      <path id="Path_5249" data-name="Path 5249" d="M77.63,10.8c.23.238-.733,4.01-4,4.115s-6.449-1.086-8.016-.146-2.583,1.869-4.2,1.367a4.624,4.624,0,0,1-1.753-1s1.868.639,2.529.362a9.36,9.36,0,0,0,2.377-1.967,3.547,3.547,0,0,1,1.346-.6,3.967,3.967,0,0,0-2.093-.242,4.153,4.153,0,0,1-2.368.142c-.632-.253-1.015-1.275-1.015-1.275s.807.676,1.493.448,2.178-1.088,3.575-.723.876-.892-.331-1.32c-.509-.181-1.544.414-1.544.414a1.738,1.738,0,0,1,2.263-.88c4.431,1.639,5.271.379,5.271.379Z" transform="translate(-9.282 -1.454)" fill="#656f92"/>
      <path id="Path_5250" data-name="Path 5250" d="M85.3,10.768c.168.284-1.646,3.73-4.845,3.07s-6.02-2.556-7.763-2.006-2.947,1.216-4.406.352A4.623,4.623,0,0,1,66.816,10.8s1.668,1.056,2.375.94a9.362,9.362,0,0,0,2.771-1.359,3.531,3.531,0,0,1,1.447-.269,3.965,3.965,0,0,0-1.978-.724,4.151,4.151,0,0,1-2.337-.413A2.506,2.506,0,0,1,68.4,7.5s.628.844,1.347.784,2.371-.552,3.646.128,1.06-.663-.015-1.36c-.453-.295-1.6.043-1.6.043a1.738,1.738,0,0,1,2.406-.328c3.928,2.624,3.739,1.837,5.038,1.594A5.772,5.772,0,0,1,85.3,10.768" transform="translate(-10.395 -0.997)" fill="#656f92"/>
      <path id="Path_5251" data-name="Path 5251" d="M32.876,22.5c3.318-1.175,7.317,1.563,8.824,3.562s1.242,5.9.68,7.28c-1.619,3.953-3.928,7.726-3.817,8.025.191.513,6.645,8.293,7,9.343.152.454.623,1.708.7,1.94s-2.625.634-2.625.634a11.328,11.328,0,0,1-.988-2.193c-.355-2.537-7.708-7.476-8.1-8.074s.555-3.772.108-4.9-5.119-3.825-6.331-5.8-1.859-7.548,4.546-9.816" transform="translate(-4.285 -3.456)" fill="#97a1c2"/>
      <path id="Path_5252" data-name="Path 5252" d="M46.263,58.419s-.083,1.151.1,1.3,3.583,1.473,4.065,1.25-.594-1.6-.733-2.087a5.391,5.391,0,0,0-.734-1.272Z" transform="translate(-7.195 -8.963)"/>
      <path id="Path_5253" data-name="Path 5253" d="M67.655,24.337c1.195.144,2.849.773,4.147,3.658s-.392,4.719-.576,5.894c-.193,1.226,5.515,6.551,5.865,7.7a3.5,3.5,0,0,1-.133,2.923,8.193,8.193,0,0,0-2.211,2.8c-.665,1.617-1.09,2.581-1.669,2.714a9.506,9.506,0,0,0-2.114.937,7.405,7.405,0,0,0-.827.7s-.627-2.942-.278-2.8.841.477,1.043-.13,1.126-1.15,1.395-1.468,2.455-2.907,2.234-4.027-4.546-4.2-6.2-5.649-4.359-2.846-4.919-4.273c-.67-1.707-1.2-4.012-.713-5.465s2.271-3.84,4.956-3.517" transform="translate(-9.725 -3.782)" fill="#97a1c2"/>
      <path id="Path_5254" data-name="Path 5254" d="M23.426,22.174c.9-2.558,4.132-5.018,9.507-4.522S39.363,19,47.22,19.141c4.376.077,6.182-1.27,8.813-2.96a48.973,48.973,0,0,1,11.515-5c3.219-.861,7.439-1.076,9.457.26s-1.9,7.525-5.409,8.3c-1.748.383-6.3,4.368-6.168,5.087s1.333,2.82.465,5.091-6.5,7.159-13.074,6.861S39.087,32.431,36.4,32.1s-9.566,1.517-11.713-.695-2.226-6.491-1.262-9.235" transform="translate(-3.553 -1.631)" fill="#bbc6e9"/>
      <path id="Path_5255" data-name="Path 5255" d="M70.756,53.312s-1.023-.631-1.338-.351a10.88,10.88,0,0,0-1.134,3.554c.08.458.974.045,1.43-.036a13.158,13.158,0,0,0,1.319-.364Z" transform="translate(-10.623 -8.228)"/>
      <path id="Path_5256" data-name="Path 5256" d="M81.555,11.1c-.585,1.286-.736,5.723.274,7.121s3.569,1.9,4.725,2.34,2.146.634,2.559,1.144.432.855.7,1.036a6.023,6.023,0,0,0,2.687-.159c.345-.232.491-.975.769-1.305s.507-1.057.308-1.354a5.443,5.443,0,0,0-1.292-1.709,28.419,28.419,0,0,1-3.063-3.17c-.629-.724-1.627-3.061-3-3.715s-3.914-1.881-4.666-.23" transform="translate(-12.616 -1.599)" fill="#bbc6e9"/>
      <path id="Path_5257" data-name="Path 5257" d="M83.658,11.152c-.43.214-1.108-.8-1.028-1.529a4.473,4.473,0,0,1,1-2.395c.477-.356.3.551.606,1.061s.841,2.157-.583,2.863" transform="translate(-12.855 -1.112)" fill="#1b1b22"/>
      <path id="Path_5258" data-name="Path 5258" d="M86.929,22.581c-1.568,0-5.219-.027-8.026-.258-6.516-.536-6.874-3.939-6.887-4.084l.421-.036c0,.032.368,3.194,6.5,3.7,3.639.3,8.705.256,8.758.254l0,.422c-.012,0-.3,0-.769,0" transform="translate(-11.204 -2.832)" fill="#191919"/>
      <path id="Path_5259" data-name="Path 5259" d="M90.888,20.9a2.822,2.822,0,0,1,.692-1.563,2.64,2.64,0,0,1,1.1-.883l.645.64a2.783,2.783,0,0,0-1,.79,4.3,4.3,0,0,0-.594,1.425Z" transform="translate(-14.14 -2.871)" fill="#191919"/>
      <path id="Path_5260" data-name="Path 5260" d="M89.564,20.838c-.033-.048-5.463-4.5-5.463-4.5l-.325.349,5.447,4.408Z" transform="translate(-13.034 -2.541)" fill="#191919"/>
      <path id="Path_5261" data-name="Path 5261" d="M85.161,20.1a10.4,10.4,0,0,1-.892-2.831,5.848,5.848,0,0,1,.391-3.377,15.309,15.309,0,0,1,1.6-2.608l-.665-.264a10.068,10.068,0,0,0-2.065,4.564,8.992,8.992,0,0,0,.764,4.193Z" transform="translate(-12.992 -1.715)" fill="#191919"/>
      <path id="Path_5262" data-name="Path 5262" d="M83.112,15.527a5.872,5.872,0,0,1-1.623-1.989,6.364,6.364,0,0,1-.669-2.8l.429-.1a6.983,6.983,0,0,0,.686,2.908,4.569,4.569,0,0,0,1.281,1.519Z" transform="translate(-12.574 -1.655)" fill="#191919"/>
      <path id="Path_5263" data-name="Path 5263" d="M90.957,23.127a.954.954,0,0,1-.533-1.746.977.977,0,0,1,1.324.259.955.955,0,0,1-.791,1.487m0-1.546a.591.591,0,0,0-.491.921.606.606,0,0,0,.821.161.593.593,0,0,0,.161-.821.592.592,0,0,0-.491-.262" transform="translate(-14.002 -3.302)" fill="#00aaeb"/>
      <path id="Path_5264" data-name="Path 5264" d="M66.857,27.692c1.132.407,2.6,1.39,3.224,4.492A5.344,5.344,0,0,1,68.2,37.8c-.971.687-2.755.093-3,.355S68.172,43.8,68.256,45a3.5,3.5,0,0,1-.783,2.818,8.182,8.182,0,0,0-2.781,2.237c-1.01,1.427-1.64,2.272-2.234,2.272a9.5,9.5,0,0,0-2.271.441,7.443,7.443,0,0,0-.963.5s.046-3.008.356-2.793.714.654,1.046.106,1.354-.869,1.687-1.119,3.042-2.284,3.078-3.425-3.492-5.11-4.779-6.893-1.911-2.579-1.083-3.869.909-3.955,1.711-5.262,3.073-3.235,5.617-2.32" transform="translate(-9.203 -4.271)" fill="#bbc6e9"/>
      <path id="Path_5265" data-name="Path 5265" d="M59.083,54.591s-.856-.844-1.225-.642a10.888,10.888,0,0,0-1.9,3.211c-.024.464.939.261,1.4.285a13.307,13.307,0,0,0,1.367-.06Z" transform="translate(-8.706 -8.388)" fill="#1b1b22"/>
      <path id="Path_5266" data-name="Path 5266" d="M31.254,22.3c3.654.131,6.473,4.3,7.167,6.808S37.369,35.291,36.3,36.4c-3.071,3.2-6.526,5.582-6.532,5.915-.012.569,6.581,3.4,6.909,3.772a20.1,20.1,0,0,1,1.132,4.056c-.012.254-2.69-1.159-2.69-1.159a1.493,1.493,0,0,0-.535-1.089c-.509-.339-9.392-4.407-9.538-5.133s2.792-3.02,2.791-4.279-4.3-6.063-4.721-8.435,1.083-8,8.137-7.749" transform="translate(-3.587 -3.469)" fill="#bbc6e9"/>
      <path id="Path_5267" data-name="Path 5267" d="M37.2,53.907s-.834.861-.785,1.1,1.6,2.952,2.136,3.1.859-1.055,1.076-1.539a5.621,5.621,0,0,0,.264-1.5Z" transform="translate(-5.665 -8.387)" fill="#1b1b22"/>
      <path id="Path_5268" data-name="Path 5268" d="M42.558,28.347c.882.584,3.034,1.244,7.557,1.5a33.608,33.608,0,0,0,8.75-.415c1.755-.358-1.151-11.24-1.39-11.209s-1.7,1.533-6.25,1.806a39.7,39.7,0,0,1-9.289-.324s-.26,8.055.622,8.639" transform="translate(-6.519 -2.835)" fill="#32abd9"/>
      <path id="Path_5269" data-name="Path 5269" d="M54.461,20.132A49.212,49.212,0,0,1,55.8,28.724a55.723,55.723,0,0,1-.258,9.424l2.757.29a54.8,54.8,0,0,0,.049-10.2,49.983,49.983,0,0,0-1.468-8.459Z" transform="translate(-8.473 -3.077)"/>
      <path id="Path_5270" data-name="Path 5270" d="M57.945,3.909a10.431,10.431,0,0,0-2.391.026c.058-.007-1.849.226-2.216.249-.328.02-4.225.126-6.3,1.826-.34.28-1.231.6-1.019,1.327a8.648,8.648,0,0,0,4.364,3.907c.6.4,1.142-.322,1.757-.444,1.254-.251,3.43.032,5.014-.188a3.29,3.29,0,0,0,2.887-2.3c.274-1.093-.232-3.7-2.1-4.4" transform="translate(-7.155 -0.596)" fill="#32abd9"/>
      <path id="Path_5271" data-name="Path 5271" d="M45.617,7.983c-1.474,1.343-2.674,2.548-2.051,4.448.514,1.566,3.841,1.455,5.079.877a3.53,3.53,0,0,0,1.337-1.417,8.65,8.65,0,0,1-4.365-3.907" transform="translate(-6.752 -1.242)" fill="#dedede"/>
      <path id="Path_5272" data-name="Path 5272" d="M58.977,6.189c.95-.4,1.837.517,2.554,1.848a38.3,38.3,0,0,1,2.63,5.331c.131.834-.67,2.013-1.636,1.31a23.4,23.4,0,0,1-4.058-4.833c-.574-1.123-1.553-2.782.512-3.656" transform="translate(-8.981 -0.948)" fill="#32abd9"/>
      <path id="Path_5273" data-name="Path 5273" d="M73.962,21.16h0a.232.232,0,0,0-.049-.323l-.792-.591a.232.232,0,0,0-.324.047h0a.233.233,0,0,0,.048.323l.792.591a.234.234,0,0,0,.325-.048" transform="translate(-11.319 -3.143)" fill="#dedede"/>
      <path id="Path_5274" data-name="Path 5274" d="M74.307,20.778h0a.231.231,0,0,0-.048-.323l-.792-.591a.232.232,0,0,0-.324.047h0a.232.232,0,0,0,.048.323l.792.591a.232.232,0,0,0,.324-.048" transform="translate(-11.372 -3.083)" fill="#dedede"/>
      <path id="Path_5275" data-name="Path 5275" d="M74.62,20.386h0a.231.231,0,0,0-.048-.323l-.792-.591a.232.232,0,0,0-.324.047h0a.233.233,0,0,0,.048.323l.792.591a.233.233,0,0,0,.324-.048" transform="translate(-11.421 -3.022)" fill="#dedede"/>
      <path id="Path_5276" data-name="Path 5276" d="M74.886,19.979h0a.231.231,0,0,0-.048-.323l-.792-.591a.232.232,0,0,0-.324.047h0a.232.232,0,0,0,.048.323l.792.591a.232.232,0,0,0,.324-.048" transform="translate(-11.463 -2.959)" fill="#dedede"/>
      <path id="Path_5277" data-name="Path 5277" d="M71.545,17.89a18.452,18.452,0,0,1,1.811.589,9.95,9.95,0,0,1,1.119,1.08s-.551.108-.689.359-.433.931-.433.931a7.1,7.1,0,0,1-1.392-.729c-.385-.326-1.044-.791-1.044-.791Z" transform="translate(-11.033 -2.783)" fill="#dedede"/>
      <path id="Path_5278" data-name="Path 5278" d="M66.277,1.86c-.551-.72-2.395-1.62-3.573-.513a2.8,2.8,0,0,0-.611,3.314,3.261,3.261,0,0,0,1.334,1.571,6.607,6.607,0,0,0,1.832.553c.207-.031.61-1.427.665-1.412a.261.261,0,0,0,.258-.154c.042-.166.042-1.22.1-1.322a2.012,2.012,0,0,0-.009-2.038" transform="translate(-9.616 -0.129)" fill="#ffbd95"/>
      <path id="Path_5279" data-name="Path 5279" d="M66.56,2.546a2.168,2.168,0,0,0-2.552.187c-.339.214.01,1.441-.081,1.528S63,3.243,63.016,3.379c.16,1.377-.4,2.022-.517,2.009-.367-.041-1.154-2.084-.335-3.477A2.524,2.524,0,0,1,64.976.8,1.977,1.977,0,0,1,66.56,2.546" transform="translate(-9.615 -0.111)" fill="#202430"/>
      <path id="Path_5280" data-name="Path 5280" d="M63.792,4.247c.053.439.013,1.011-.225,1.038s-.473-.307-.526-.746.1-.817.333-.844.365.113.418.552" transform="translate(-9.806 -0.574)" fill="#ffbd95"/>
      <path id="Path_5281" data-name="Path 5281" d="M62.483,4.186a10.783,10.783,0,0,0,.5,1.57A3.18,3.18,0,0,0,64.59,7.1a1.554,1.554,0,0,0,.336.064,3.169,3.169,0,0,0-.269-.235,3.479,3.479,0,0,1-1.271-1.074c-.017-.068.469-.784.719-1.365a6.254,6.254,0,0,0,.217-.8h-.3a2.869,2.869,0,0,1-.134.614,5.2,5.2,0,0,1-.719,1.211s-.146-.323-.251-.631A4.484,4.484,0,0,1,62.751,4Z" transform="translate(-9.721 -0.574)" fill="#383838"/>
      <path id="Path_5282" data-name="Path 5282" d="M55.777,30.246a2.639,2.639,0,0,1-.1,1.1,7.367,7.367,0,0,0-.41,1.735c-.014.35.6.828.6.828l1.08.02s-.272-1.821-.4-2.374a2.329,2.329,0,0,1,.148-1.208Z" transform="translate(-8.598 -4.706)"/>
      <path id="Path_5283" data-name="Path 5283" d="M53.967,21.234a20.444,20.444,0,0,0-.674,3.51c-.17,1.833-.024,2.849.5,3s1.343.211,1.622.654.551.974.926.958.5-3.118.479-5.15a5.6,5.6,0,0,0-.463-2.7Z" transform="translate(-8.281 -3.303)" fill="#2d2d38"/>
      <path id="Path_5284" data-name="Path 5284" d="M54.517,16.594a1.6,1.6,0,0,1,1.4.113,4.519,4.519,0,0,1,.321,2.152c-.088.293-.029,1.517-.959,1.626s-1.072-.658-1.123-1.175-.262-2.319.364-2.716" transform="translate(-8.413 -2.564)" fill="#202430"/>
      <path id="Path_5285" data-name="Path 5285" d="M55.23,18.43s.078,1.962-1.01,2c-.783.025-.889-.71-1.114-.7s-.722.274-.971.2-1.113-.5-1.447-.427-3.2.748-3.114,1.217a4.5,4.5,0,0,0,3.82,2.364c1.961-.173,2.444-1.414,2.869-1.444s1.616.8,2.064.014c.2-.357.538-3.2-1.1-3.22" transform="translate(-7.401 -2.867)" fill="#2d2d38"/>
      <path id="Path_5286" data-name="Path 5286" d="M52.585,17.528s-2.98,1.816-4.433,1.614c-2.729-.379-3.139-1.257-3.917-.727-.384.262.3,1.989,1.707,2.172s7.529-.314,7.529-.314a1.626,1.626,0,0,1-.789-1.3,7.32,7.32,0,0,1-.1-1.444" transform="translate(-6.865 -2.727)" fill="#202430"/>
      <path id="Path_5287" data-name="Path 5287" d="M67.342,2.952c.037-.18-.526-.392-.524-.54A2.261,2.261,0,0,0,64.745.058,2.813,2.813,0,0,0,61.38,3.488a3.929,3.929,0,0,0,.332.744c.132.13.339-.312,1.073-.583a5.7,5.7,0,0,1,1.734-.4c1.105-.029,2.776-.081,2.822-.3" transform="translate(-9.532 0)" fill="#32abd9"/>
      <path id="Path_5288" data-name="Path 5288" d="M43.991,11.179a2.485,2.485,0,0,1,2.532-.71c.958.155,3.3,1.821,4.354,2.655s3.828,3.705,3.921,4.6a1.42,1.42,0,0,1-2.192,1.39,54.14,54.14,0,0,1-6.237-3.551c-1.358-.988-3.7-2.161-2.377-4.384" transform="translate(-6.783 -1.62)" fill="#fff"/>
      <path id="Path_5289" data-name="Path 5289" d="M55.285,18.594c-.911-.209-3.273,1.667-3.736,4.2a37.444,37.444,0,0,0-.278,5.712c-.093.432-.587,1.359-.247,1.667s2.223-.092,2.223-.463a2.828,2.828,0,0,1-.031-1.143c.124-.9,1.42-5.249,1.76-6.237s1.791-3.4.309-3.736" transform="translate(-7.92 -2.89)" fill="#dedede"/>
      <path id="Path_5290" data-name="Path 5290" d="M50.648,28.312c-.339-.309.155-1.235.247-1.667a37.7,37.7,0,0,1,.278-5.713,6,6,0,0,1,1.4-2.8,52.279,52.279,0,0,1-5.441-3.157c-.926-.674-2.31-1.435-2.678-2.554a1.282,1.282,0,0,1-.094-.2c-.537-1.636.282-2.757,1.46-3.894-.064-.115-.144-.222-.2-.342-1.474,1.343-2.675,2.548-2.051,4.448a1.283,1.283,0,0,0,.094.2c.366,1.12,1.75,1.881,2.677,2.554a52.209,52.209,0,0,0,5.441,3.157,5.986,5.986,0,0,0-1.4,2.8,37.693,37.693,0,0,0-.278,5.713c-.093.432-.587,1.358-.247,1.667.241.22,1.255.078,1.826-.155a1.573,1.573,0,0,1-1.034-.057" transform="translate(-6.752 -1.242)" fill="#c2c2c2"/>
      <path id="Path_5291" data-name="Path 5291" d="M51.875,21.728a10.522,10.522,0,0,0-.781,2.85c-.133,1.408.133,3.905,0,4.187a7.714,7.714,0,0,0-.472,1.794,6.161,6.161,0,0,0,.318.915c.014.106.041.528.041.528l1.828.211.156-.388a10.306,10.306,0,0,0,2.708.458c1.126-.035,1.971-.176,2.076-.387s-.035-.6-.985-.7a10.406,10.406,0,0,1-3.228-1.613c-.437-.317,1.328-6.443,1.328-6.443s-.136-1.215-.844-1.55a3.335,3.335,0,0,0-2.147.141" transform="translate(-7.876 -3.336)"/>
      <path id="Path_5292" data-name="Path 5292" d="M55.912,30.51l1.161.132a.247.247,0,0,0,.262-.236.256.256,0,0,0-.211-.287l-1.162-.132a.247.247,0,0,0-.262.236.258.258,0,0,0,.212.287" transform="translate(-8.666 -4.665)" fill="#2d2d38"/>
      <path id="Path_5293" data-name="Path 5293" d="M57.211,30.415l-1-.031a8.389,8.389,0,0,0,.025.979,8.273,8.273,0,0,1,.022,2.062c-.128.412-.155.52-.155.52l1.246.012a4.015,4.015,0,0,0,.1-1.1c-.039-.543-.307-1.3-.312-1.631a5.663,5.663,0,0,1,.075-.808" transform="translate(-8.728 -4.727)" fill="#2d2d38"/>
      <path id="Path_5294" data-name="Path 5294" d="M60.636,8.627a.954.954,0,0,1-.19,1.309.955.955,0,0,1-1.207-.542.953.953,0,0,1,.191-1.308.953.953,0,0,1,1.206.541" transform="translate(-9.191 -1.246)" fill="#dedede"/>
      <path id="Path_5295" data-name="Path 5295" d="M53.526,15.058h0a21.675,21.675,0,0,0-2-1.928c-.254-.2-.587-.453-.954-.72.03-.046.061-.091.091-.137a11.831,11.831,0,0,1-1.273-.675l-.192-.123a9.45,9.45,0,0,1-1.322-1.038c-.155.236-.181.546.2.916.9.876,5.605,3.887,5.639,3.909l-.186-.2" transform="translate(-7.432 -1.624)" fill="#c2c2c2"/>
      <path id="Path_5296" data-name="Path 5296" d="M70.563,17.384a19.212,19.212,0,0,0-2.87-2.08c-1.545-.889-3.317-1.374-4.052-.911s-.695,1.37.17,2A46.552,46.552,0,0,0,69.7,18.88c.16.017.86-1.5.86-1.5" transform="translate(-9.821 -2.211)" fill="#32abd9"/>
    </g>
  </g>
</svg>
