<svg xmlns="http://www.w3.org/2000/svg" xmlns:xlink="http://www.w3.org/1999/xlink" width="41.594" height="19.262" viewBox="0 0 41.594 19.262">
  <defs>
    <clipPath id="clip-path">
      <rect id="Rectangle_3886" data-name="Rectangle 3886" width="1.989" height="0.582" fill="none"/>
    </clipPath>
    <clipPath id="clip-path-2">
      <rect id="Rectangle_3887" data-name="Rectangle 3887" width="5.628" height="5.163" fill="none"/>
    </clipPath>
  </defs>
  <g id="Group_3682" data-name="Group 3682" transform="translate(0 0)">
    <g id="Group_3683" data-name="Group 3683" transform="translate(0 0)">
      <path id="Path_5355" data-name="Path 5355" d="M10.929,16.483l.31.157.075-.463Z" transform="translate(26.899 -11.173)" fill="#ededed"/>
      <path id="Path_5356" data-name="Path 5356" d="M11.853,16.483l.31.157.075-.463Z" transform="translate(25.689 -11.173)" fill="#ededed"/>
      <path id="Path_5357" data-name="Path 5357" d="M12.474,16.187l.31.157.075-.463Z" transform="translate(24.877 -10.968)" fill="#ededed"/>
      <path id="Path_5358" data-name="Path 5358" d="M12.931,15.91l.31.157.075-.463Z" transform="translate(24.278 -10.777)" fill="#ededed"/>
      <path id="Path_5359" data-name="Path 5359" d="M13.789,15.439l.31.157.075-.463Z" transform="translate(23.155 -10.451)" fill="#ededed"/>
      <g id="Group_3680" data-name="Group 3680">
        <g id="Group_3684" data-name="Group 3684">
          <path id="Path_5360" data-name="Path 5360" d="M33.923,33.137l1.022.549,3.156-.553.5-.177a.672.672,0,0,0,.439-.744l-.432-2.569-.011-.066a.425.425,0,0,1,.386-.5,11.892,11.892,0,0,0,2.528-.472c.125-.084.25-.171.377-.266,1.125-.836,1.054-1.879,1.165-3.766l-.04.019a38,38,0,0,1-5.783,2.949.576.576,0,0,0-.3.644l.3,1.286.572,2.428a.305.305,0,0,1-.195.358l-2.47.46-.287-.14a.37.37,0,0,0-.276-.02l-.626.2a.2.2,0,0,0-.034.375" transform="translate(-11.924 -16.974)" fill="#97a1c2"/>
          <path id="Path_5361" data-name="Path 5361" d="M57.187,16.1a4.2,4.2,0,0,0,1.264.768l2.23.865c1.836.983,2.959,1.784,3.736,3.826L66.41,22.67l1.944,1.08.578.9a.986.986,0,0,0,.921.257l.759-.071c.332-.037.02-.715-.251-.909l-.848-.3L65.306,20.4A39.16,39.16,0,0,0,62.893,14.6c-.21-.389-.428-.763-.659-1.121a11.7,11.7,0,0,0-1.453-1.868,7.789,7.789,0,0,0-.678-.624l-3.283-.626-.092.066,0,.006-.018-.006-.338,2.594a4.215,4.215,0,0,0,.811,3.078" transform="translate(-46.592 -7.158)" fill="#97a1c2"/>
          <path id="Path_5362" data-name="Path 5362" d="M33.7,7.238l0,.006L35.079,10.4a6.581,6.581,0,0,1,3.991-.15c.044.011.09.025.134.038l.06.016c.219.068.434.145.645.232s.413.18.615.281a22.021,22.021,0,0,1,4.024,2.92c.12.1.243.205.366.3l.17.14a14.157,14.157,0,0,0,2.825,1.923h0a6.122,6.122,0,0,0,.964.36,4.612,4.612,0,0,0,1.371.167,3.977,3.977,0,0,0,.68-.076c.085-.014.172-.033.26-.055a5.237,5.237,0,0,0,1.1-.4l.1-.052c.028-.014.058-.027.088-.044a7.642,7.642,0,0,0,.678-.4c.126-.085.249-.172.377-.268a2.522,2.522,0,0,0,1.033-1.874c.054-.4.076-.847.1-1.371.008-.167.016-.339.028-.519s.024-.35.038-.536l-.183-.145L51.52,8.462l-.847-.678-.005,0a3.261,3.261,0,0,1-1.683.464,5.785,5.785,0,0,1-2.011-.377c-1.216-.435-2.262-1.1-2.759-1.257A21.133,21.133,0,0,0,41.718,6c-3.161-.568-5.969-.229-7.928,1.167-.033.022-.063.044-.093.068" transform="translate(-23.561 -3.965)" fill="#bbc6e9"/>
          <path id="Path_5363" data-name="Path 5363" d="M0,4.434l.87.871L4.615,9.061c.029-.085.059-.169.089-.252q.129-.35.277-.685C5.864,6.1,7.236,4.551,9.265,4.689l.609.266,1.408.615a1.516,1.516,0,0,0,.659.125l.179-.007a.126.126,0,0,0,.062-.232,12.82,12.82,0,0,0-1.544-.871c-.243-.088-.554-.225-.515-.487a.355.355,0,0,1,.31-.283,1.533,1.533,0,0,1,1.131.377c.28.214.6.4.874.623a2.47,2.47,0,0,0,1.437.5,2.035,2.035,0,0,0,.9-.21l.425-.34.137-.11.071-.058a.165.165,0,0,0,0-.263l-.479-.353-.434-.32L11.712,2.219,11.33,1.7A3.889,3.889,0,0,0,9.266.25L8.8.115A2.976,2.976,0,0,0,6.36.476L5.92.749l-.639.4L4.19,1.827.988,3.82l0,0Z" transform="translate(26.123 0)" fill="#bbc6e9"/>
          <path id="Path_5364" data-name="Path 5364" d="M59.061,16.249a4.2,4.2,0,0,0,1.477,1.234l1.342.674.8.4a8.231,8.231,0,0,1,2.573,2.34,5.976,5.976,0,0,1,.609,1.268q.092.264.173.556l3.714,2.554.488.949a.991.991,0,0,0,.892.344h.763c.334-.006.088-.711-.165-.928l-.815-.377-2.267-2.112-.357-.332-.325-.3-.143-.133-.789-.736c-.233-.97-.484-1.953-.768-2.913-.082-.28-.167-.557-.258-.833a23.336,23.336,0,0,0-1.234-3.148c-.188-.384-.385-.754-.6-1.1q-.122-.2-.251-.4a8.992,8.992,0,0,0-1.176-1.461l-.086-.025-2.292-.667h0l-.032-.01-.755-.22-.97-.282-.018-.006-.108.83-.051.392-.179,1.371a4.215,4.215,0,0,0,.811,3.078" transform="translate(-48.467 -7.305)" fill="#bbc6e9"/>
          <path id="Path_5365" data-name="Path 5365" d="M95.97,10.817l.129-.041c.086-.026.213-.063.377-.1a4.848,4.848,0,0,1,1.372-.106,4.652,4.652,0,0,1,.9.144c.075.018.158.044.239.067s.157.052.235.082q.239.089.486.2c.21.091.428.188.656.277.131.051.264.1.4.143.1.03.193.058.3.084l.143.032c.059.011.1.018.158.026a3.664,3.664,0,0,0,.624.042,5.015,5.015,0,0,0,1.221-.177,8.126,8.126,0,0,0,1.108-.4c.353-.156.652-.309.953-.442.232-.106.454-.2.665-.292l.176-.073c.261-.109.5-.2.717-.283s.4-.143.55-.195.284-.089.368-.117l.051-.015.073-.023h0a.013.013,0,0,1,.007,0l-.011-.029-.157-.43-.257-.7-.129.055c-.085.037-.2.083-.365.158s-.361.162-.575.268-.461.229-.722.369-.54.294-.832.463l-.893.527a5.4,5.4,0,0,1-1.984.714,3.1,3.1,0,0,1-.53.018l-.127-.007-.14-.018c-.082-.011-.17-.026-.259-.044-.353-.074-.7-.192-1.05-.3-.174-.055-.348-.107-.521-.152-.087-.022-.17-.043-.261-.06s-.165-.034-.252-.045a4.977,4.977,0,0,0-2.347.194c-.161.052-.284.1-.368.139l-.123.054" transform="translate(-95.97 -5.862)" fill="#bbc6e9"/>
          <path id="Path_5366" data-name="Path 5366" d="M13.319,6.861c.108.377.509.4.675-.054l-.41-.067Z" transform="translate(23.479 -4.655)" fill="#101015"/>
          <path id="Path_5367" data-name="Path 5367" d="M14.082,7.124l-.02.034a.265.265,0,0,1-.023.039L14,7.242a.628.628,0,0,1-.048.045.346.346,0,0,1-.062.037.27.27,0,0,1-.073.023l-.039,0-.04,0a.272.272,0,0,1-.077-.018A.4.4,0,0,1,13.6,7.3a.479.479,0,0,1-.057-.046A.283.283,0,0,1,13.5,7.2a.422.422,0,0,1-.031-.048.212.212,0,0,1-.019-.04l-.015-.037.007.039a.192.192,0,0,0,.012.044.234.234,0,0,0,.024.055.3.3,0,0,0,.041.059.35.35,0,0,0,.058.057.355.355,0,0,0,.077.042.313.313,0,0,0,.088.023l.046,0,.045-.006a.281.281,0,0,0,.083-.031.289.289,0,0,0,.066-.049.643.643,0,0,0,.047-.055c.012-.019.021-.037.029-.053a.294.294,0,0,0,.016-.043l.011-.038" transform="translate(23.357 -4.888)" fill="#575756"/>
          <path id="Path_5368" data-name="Path 5368" d="M13.926,6.792l-.032-.019a.5.5,0,0,0-.088-.041l-.064-.02A.476.476,0,0,0,13.67,6.7a.463.463,0,0,0-.078-.008H13.51l-.081.01a.442.442,0,0,0-.077.017.617.617,0,0,0-.13.049.485.485,0,0,0-.084.051l-.03.022.037-.005c.024,0,.054-.012.093-.017l.062-.01c.021,0,.045,0,.068-.009.047-.008.1-.01.147-.015s.1,0,.148,0c.024,0,.047,0,.069,0s.042,0,.061,0c.039,0,.072.007.1.007h.037" transform="translate(23.613 -4.62)" fill="#2d2d38"/>
          <path id="Path_5369" data-name="Path 5369" d="M13.74,7.274c-.038.04-.056.085-.04.1s.059-.006.1-.047.056-.085.04-.1-.059.006-.1.047" transform="translate(23.515 -4.988)" fill="#f6f6f6"/>
          <path id="Path_5370" data-name="Path 5370" d="M14.737,6.905c.1-.223.131-.5.34-.629-.164.164-.065.45.089.623a1.813,1.813,0,0,0,.713.461,3.258,3.258,0,0,0-1.866.455,2.508,2.508,0,0,1-.842.42,8.678,8.678,0,0,0,.975-.662,1.826,1.826,0,0,0,.591-.669" transform="translate(21.64 -4.334)" fill="#97a1c2"/>
          <path id="Path_5371" data-name="Path 5371" d="M78.2,12.17a3.938,3.938,0,0,0-.1.488,1.152,1.152,0,0,0,.1-.488" transform="translate(-60.773 -8.405)" fill="#d4bfa5"/>
          <path id="Path_5372" data-name="Path 5372" d="M40.113,33.718l.781.858,3.161.527h.533a.669.669,0,0,0,.661-.557l.456-2.634a.424.424,0,0,1,.527-.339,12.12,12.12,0,0,0,2.106.366h0c.415.036.831.046,1.251.041a17.174,17.174,0,0,0,2.1-.175,1.672,1.672,0,0,0,1.076-.623,2.936,2.936,0,0,0,.222-.322,1.462,1.462,0,0,0-1.465-2.18,38.629,38.629,0,0,1-4.822.751q-.471.045-.943.074c-.224.014-.445.027-.669.038a.39.39,0,0,0-.112.03.562.562,0,0,0-.383.478l-.066.615-.341,3.18a.3.3,0,0,1-.3.27L41.4,33.732l-.221-.227a.382.382,0,0,0-.257-.112l-.1,0-.552-.014a.2.2,0,0,0-.156.342" transform="translate(-23.991 -19.798)" fill="#bbc6e9"/>
          <path id="Path_5373" data-name="Path 5373" d="M78.284,44.23l.781.858.49.081a5.976,5.976,0,0,0-.609-1.268l-.5-.014a.205.205,0,0,0-.157.343" transform="translate(-62.163 -30.31)" fill="#97a1c2"/>
          <path id="Path_5374" data-name="Path 5374" d="M97.748,23.589a.428.428,0,0,0-.123-.019.724.724,0,0,0,.123.019" transform="translate(-86.357 -16.278)" fill="#d4bfa5"/>
          <path id="Path_5375" data-name="Path 5375" d="M57.932,20.779a2.381,2.381,0,0,0,.161-.274,2.021,2.021,0,0,0,.244-1.192A2.413,2.413,0,0,0,58.3,19a1.219,1.219,0,0,0-.271.174,1.042,1.042,0,0,0-.275,1.341,1.237,1.237,0,0,0,.18.267" transform="translate(-34.58 -13.12)" fill="#d4bfa5"/>
          <path id="Path_5376" data-name="Path 5376" d="M59.768,20.094s.062-.124.129-.29a2.193,2.193,0,0,0,.2-1.216c-.01-.179-.029-.316-.029-.316a1.061,1.061,0,0,0-.282.175,1.071,1.071,0,0,0-.228,1.391,1.066,1.066,0,0,0,.211.256" transform="translate(-36.89 -12.618)" fill="#d4bfa5"/>
          <path id="Path_5377" data-name="Path 5377" d="M.505,12.646a.741.741,0,0,0,.332.218,5.848,5.848,0,0,1,1.922.968l.015.014a.125.125,0,0,0,0-.211,12.8,12.8,0,0,0-1.544-.871c-.243-.088-.554-.225-.515-.487a.355.355,0,0,1,.31-.282,1.532,1.532,0,0,1,1.131.377c.28.214.6.4.874.623a2.47,2.47,0,0,0,1.437.5,2.034,2.034,0,0,0,.9-.21l.425-.34.137-.11a1.881,1.881,0,0,1-.332-.217,1.048,1.048,0,0,1-.83.6,2.6,2.6,0,0,1-1.061-.1,1.97,1.97,0,0,1-.854-.427c-.154-.118-.409-.355-.556-.482a1.612,1.612,0,0,0-.728-.314,1.227,1.227,0,0,0-.83.045.517.517,0,0,0-.232.711" transform="translate(35.532 -8.177)" fill="#97a1c2"/>
          <path id="Path_5378" data-name="Path 5378" d="M.179,13.544l.2.106.209-.168a.166.166,0,0,0,0-.263L.1,12.866l-.089.287a.332.332,0,0,0,.163.391" transform="translate(40.943 -8.886)" fill="#1b1b22"/>
          <path id="Path_5379" data-name="Path 5379" d="M21.1,2.822a3.056,3.056,0,0,1,.535.258c.162.1.316.214.487.3A2.555,2.555,0,0,0,23,3.589a2.86,2.86,0,0,0,.9-.019,1.257,1.257,0,0,0,.759-.461l.1.043a.4.4,0,0,0-.184-.184.758.758,0,0,0-.143-.048c-.421-.106-.863-.1-1.293-.166-.414-.064-.816-.193-1.225-.291-.059-.014-.119-.029-.179-.038Z" transform="translate(10.306 -1.674)" fill="#97a1c2"/>
          <path id="Path_5380" data-name="Path 5380" d="M20.816,1.15a.835.835,0,0,1,.523.29,1.286,1.286,0,0,0,.336.24,1.983,1.983,0,0,1,.312.119,1.126,1.126,0,0,1,.179.172,1.172,1.172,0,0,0,.175.155,1.878,1.878,0,0,0,.788.331,3.452,3.452,0,0,0,.618.058l.118,0q.179,0,.358,0c.264,0,.582-.044.688-.286s-.114-.536-.354-.681a1.854,1.854,0,0,0-1.1-.251c-.252.022-.5.1-.751.117-.637.048-1.253-.255-1.891-.262" transform="translate(10.214 -0.794)" fill="#bbc6e9"/>
          <path id="Path_5381" data-name="Path 5381" d="M24.207,1.863a5.232,5.232,0,0,0,.731.123,1.454,1.454,0,0,1,.944.333.627.627,0,0,1,.149.291.788.788,0,0,1-.426.1q-.138,0-.275,0l-.09,0a2.677,2.677,0,0,1-.474-.044,1.445,1.445,0,0,1-.6-.254.925.925,0,0,1-.135-.119.857.857,0,0,0-.137-.131,1.51,1.51,0,0,0-.239-.092.994.994,0,0,1-.258-.184.638.638,0,0,0-.4-.222c.41,0,.809.167,1.215.2" transform="translate(8.45 -1.15)" fill="#101015"/>
          <path id="Path_5382" data-name="Path 5382" d="M3.121,14.546a.074.074,0,1,0,.073-.06.067.067,0,0,0-.073.06" transform="translate(37.362 -10.004)" fill="#677298"/>
          <path id="Path_5383" data-name="Path 5383" d="M3.12,13.691a.037.037,0,1,0,.037-.037.037.037,0,0,0-.037.037" transform="translate(37.436 -9.43)" fill="#677298"/>
          <path id="Path_5384" data-name="Path 5384" d="M3.786,14.088a.073.073,0,1,0,.073-.073.073.073,0,0,0-.073.073" transform="translate(36.491 -9.679)" fill="#677298"/>
          <path id="Path_5385" data-name="Path 5385" d="M4.257,12.942a.077.077,0,1,0,.077-.077.077.077,0,0,0-.077.077" transform="translate(35.866 -8.885)" fill="#677298"/>
          <path id="Path_5386" data-name="Path 5386" d="M4.95,14.323a.073.073,0,1,0,.073-.073.073.073,0,0,0-.073.073" transform="translate(34.967 -9.841)" fill="#677298"/>
          <path id="Path_5387" data-name="Path 5387" d="M4.257,15.284a.077.077,0,1,0,.077-.077.077.077,0,0,0-.077.077" transform="translate(35.866 -10.502)" fill="#677298"/>
          <path id="Path_5388" data-name="Path 5388" d="M5.726,13.434a.069.069,0,1,0,.069-.069.069.069,0,0,0-.069.069" transform="translate(33.959 -9.23)" fill="#677298"/>
          <path id="Path_5389" data-name="Path 5389" d="M6.059,14.951a.077.077,0,1,0,.077-.077.077.077,0,0,0-.077.077" transform="translate(33.506 -10.272)" fill="#677298"/>
          <path id="Path_5390" data-name="Path 5390" d="M41.274,11.406a22.021,22.021,0,0,1,4.024,2.92.4.4,0,0,1,.112-.03c.224-.011.445-.024.669-.038a.35.35,0,0,0,.022-.046.779.779,0,0,1,1.243-.191,15.227,15.227,0,0,0,3.7,2.62h0c.292.156.587.3.893.448.087-.022.178-.046.268-.074a1.162,1.162,0,0,0,.156-.052.333.333,0,0,0,.047-.014l.022-.008a.023.023,0,0,0,.011-.005c.041-.014.082-.03.123-.047a.076.076,0,0,0,.033-.011c.052-.019.106-.041.158-.066.076-.03.153-.066.23-.1l.049-.025h0l.1-.052a22.28,22.28,0,0,1-3.759-2.366A3.134,3.134,0,0,1,48.863,9.9c.281-.361.574-.716.871-1.065a5.778,5.778,0,0,1-2.011-.377c-1.216-.434-2.262-1.1-2.76-1.257a21.054,21.054,0,0,0-2.5-.615,10.733,10.733,0,0,0-.91,2.568s0,0,0,.006a13.016,13.016,0,0,0-.284,2.243" transform="translate(-24.311 -4.55)" fill="#00aaeb"/>
          <g id="Group_3675" data-name="Group 3675" transform="translate(26.732 11.956)" opacity="0.1">
            <g id="Group_3674" data-name="Group 3674" transform="translate(0)">
              <g id="Group_3673" data-name="Group 3673" clip-path="url(#clip-path)">
                <path id="Path_5391" data-name="Path 5391" d="M41.609,38.779c.292.156.587.3.893.448.087-.022.178-.046.268-.074a1.12,1.12,0,0,0,.156-.052.283.283,0,0,0,.046-.014l.022-.008A.019.019,0,0,0,43,39.074c.041-.014.082-.03.123-.046a.078.078,0,0,0,.033-.011c.052-.019.106-.041.158-.066.076-.03.153-.066.23-.1l.049-.025c-.339-.027-.672-.071-1.005-.128a2.345,2.345,0,0,0-.412-.049,1.74,1.74,0,0,0-.571.134" transform="translate(-41.609 -38.645)" fill="#1d1d1b"/>
              </g>
            </g>
          </g>
          <g id="Group_3678" data-name="Group 3678" transform="translate(16.963 4.612)" opacity="0.1">
            <g id="Group_3677" data-name="Group 3677">
              <g id="Group_3676" data-name="Group 3676" clip-path="url(#clip-path-2)">
                <path id="Path_5392" data-name="Path 5392" d="M61.426,17.151a22.022,22.022,0,0,1,4.024,2.92.4.4,0,0,1,.112-.03c.224-.011.445-.024.669-.038a.35.35,0,0,0,.022-.046.773.773,0,0,1,.8-.412A3.3,3.3,0,0,0,65.947,18.5a6.9,6.9,0,0,0-.964-.426q-.947-.361-1.893-.718a2.131,2.131,0,0,1-.8-.448,1.706,1.706,0,0,1-.38-.727,4.655,4.655,0,0,1-.2-1.267,13.016,13.016,0,0,0-.284,2.243" transform="translate(-61.426 -14.908)" fill="#1d1d1b"/>
              </g>
            </g>
          </g>
          <path id="Path_5393" data-name="Path 5393" d="M61.971,16a.75.75,0,0,0,1.022-.57l.074-.251a.731.731,0,0,0-.113-.758.691.691,0,0,0,.5-.551l.03-.1a.818.818,0,1,0-1.568-.465l-.03.1a.7.7,0,0,0,.119.735.731.731,0,0,0-.508.574l-.074.251A.749.749,0,0,0,61.971,16m.955-2.182c-.076.255-.219.3-.383.254s-.258-.166-.183-.421l.053-.178c.085-.287.231-.328.391-.281s.26.161.175.449Zm-.82,1.726c-.16-.047-.255-.16-.176-.444l.088-.3c.074-.251.212-.329.389-.276s.25.193.176.444l-.088.3c-.084.283-.23.324-.389.276" transform="translate(-40.929 -8.764)" fill="#fff"/>
        </g>
      </g>
    </g>
  </g>
</svg>
