<svg width="30" height="25" viewBox="0 0 30 25" fill="none" xmlns="http://www.w3.org/2000/svg">
<mask id="mask0_4758_5361" style="mask-type:alpha" maskUnits="userSpaceOnUse" x="0" y="0" width="30" height="25">
<rect width="30" height="25" fill="#D9D9D9"/>
</mask>
<g mask="url(#mask0_4758_5361)">
<mask id="mask1_4758_5361" style="mask-type:luminance" maskUnits="userSpaceOnUse" x="3" y="0" width="25" height="25">
<path d="M28 0H3V25H28V0Z" fill="white"/>
</mask>
<g mask="url(#mask1_4758_5361)">
<path fill-rule="evenodd" clip-rule="evenodd" d="M12.006 4.99597C11.7828 4.35994 11.5653 3.73459 11.391 3.09573C11.2139 2.44003 11.0755 1.77439 10.9766 1.10231C10.9203 0.727972 10.9291 0.716991 11.2869 0.592106C12.011 0.339203 12.7494 0.140581 13.5082 0.0241701C13.8594 -0.029172 13.8769 -0.017876 13.9244 0.342969C14.1247 1.86322 14.5494 3.31725 15.1953 4.70572C15.2685 4.86263 15.3078 5.11897 15.476 5.12712C15.6897 5.13778 15.7175 4.86606 15.7944 4.70166C16.4361 3.33697 16.8611 1.87981 17.0538 0.383131C17.1063 -0.0238378 17.1175 -0.0332512 17.5257 0.0273079C18.2857 0.140581 19.02 0.355831 19.7447 0.604031C20.0747 0.716991 20.0685 0.730797 20.0166 1.09038C19.8432 2.29403 19.5319 3.46128 19.1207 4.60375C19.0747 4.73241 18.9335 4.88553 19.0716 5.00694C19.1807 5.10234 19.3197 4.97841 19.4369 4.92944C20.6207 4.43588 21.6563 3.71953 22.5682 2.8193C22.6107 2.77788 22.6519 2.73583 22.6938 2.69441C23.0275 2.36212 23.0266 2.36338 23.3994 2.67559C23.9541 3.13934 24.4866 3.62634 24.9516 4.18266C25.1866 4.46381 25.1841 4.46819 24.9413 4.72359C23.1653 6.58931 21.0219 7.81431 18.5282 8.429C18.4138 8.45725 18.2972 8.47825 18.1847 8.51247C17.9153 8.59406 17.8963 8.65241 18.1028 8.86391C18.785 9.56238 19.5385 10.1758 20.3497 10.7171C20.6022 10.8859 20.6119 10.8793 20.9069 10.6022C22.1544 9.43184 23.5622 8.50181 25.115 7.79422C25.57 7.58712 26.0391 7.40922 26.5078 7.23478C26.8257 7.11678 26.8788 7.14409 27.0097 7.46131C27.3028 8.17172 27.5541 8.89684 27.7147 9.65053C27.7866 9.98941 27.7825 10.0054 27.4388 10.1275C26.6883 10.3911 25.9641 10.7249 25.2757 11.1243C24.8307 11.3844 24.4004 11.6692 23.9869 11.9772C23.8722 12.0625 23.6891 12.1325 23.7078 12.291C23.7316 12.4883 23.9532 12.4739 24.0966 12.5197C25.1495 12.8546 26.2373 13.0663 27.3385 13.1507C28.17 13.215 28.0085 13.1884 27.9428 13.8966C27.8802 14.5586 27.7539 15.2131 27.566 15.8508C27.466 16.1912 27.4566 16.2044 27.1047 16.1783C25.9005 16.0902 24.7091 15.8733 23.5507 15.5313C20.6088 14.6653 18.0641 13.1291 15.896 10.9583C15.4719 10.5341 15.5497 10.4871 15.0944 10.9477C12.7919 13.2759 10.0572 14.8558 6.89503 15.6838C5.94097 15.9345 4.96645 16.099 3.98317 16.1752C3.52911 16.2097 3.53536 16.1972 3.40817 15.7717C3.20348 15.0892 3.1013 14.3886 3.02161 13.6838C2.96848 13.2144 2.97786 13.1987 3.47286 13.1639C4.5488 13.0886 5.60536 12.9088 6.63909 12.5988C6.82219 12.5437 7.00394 12.484 7.18409 12.4199C7.34003 12.3644 7.35784 12.2612 7.23691 12.1582C7.0685 12.0153 6.89297 11.881 6.71097 11.756C5.73567 11.0845 4.70005 10.5291 3.58036 10.1378C3.19098 10.0023 3.18786 9.99631 3.28005 9.60409C3.44911 8.88428 3.66536 8.17956 3.96598 7.50209C4.13317 7.12556 4.13911 7.11584 4.52161 7.24825C5.78828 7.68919 6.99384 8.29041 8.10909 9.03741C8.82159 9.51278 9.48472 10.05 10.1185 10.6251C10.3997 10.8802 10.3997 10.8762 10.7122 10.6668C11.435 10.1835 12.1091 9.63044 12.7247 9.01544C12.7975 8.94266 12.8728 8.87112 12.9382 8.79172C13.0422 8.66559 12.995 8.57459 12.8557 8.52375C12.7732 8.49362 12.6857 8.47669 12.5997 8.45662C10.0647 7.87078 7.89347 6.63797 6.08036 4.76816C6.03911 4.72581 5.99911 4.68281 5.95723 4.64078C5.84786 4.53 5.82692 4.41738 5.93817 4.29184C6.51597 3.63919 7.13441 3.02953 7.82003 2.48952C7.96128 2.37813 8.05753 2.44276 8.16003 2.54851C8.50878 2.90935 8.87003 3.25512 9.26316 3.56797C10.0009 4.15806 10.8208 4.6365 11.6966 4.98812C11.7747 5.0195 11.856 5.06972 12.006 4.99597Z" fill="#E6642B"/>
<path fill-rule="evenodd" clip-rule="evenodd" d="M15.4536 24.9939C15.0861 24.9939 14.7179 25.0093 14.3514 24.9896C14.0267 24.972 13.9807 24.9111 13.9795 24.5776C13.9757 23.4558 13.9661 22.3338 13.9845 21.212C13.9904 20.8499 13.8867 20.5675 13.6664 20.2832C12.4476 18.7115 11.2439 17.1279 10.0382 15.5461C9.72981 15.1413 9.73512 15.1388 10.2051 14.9117C10.8154 14.6173 11.4132 14.3008 11.9873 13.9393C12.4217 13.6657 12.4248 13.6713 12.7248 14.0645C13.5386 15.1304 14.3523 16.196 15.1667 17.2612C15.4923 17.6873 15.5011 17.6864 15.8173 17.2719C16.6486 16.1822 17.4798 15.0924 18.3123 14.0036C18.5667 13.671 18.572 13.6663 18.9107 13.8803C19.5589 14.2897 20.2348 14.6462 20.9264 14.9754C21.227 15.1181 21.2364 15.1639 21.0348 15.4291C19.7854 17.0711 18.5386 18.7147 17.2767 20.3469C17.0836 20.597 16.9982 20.8433 17.0014 21.1552C17.0129 22.2769 17.0067 23.3987 17.0051 24.5208C17.0045 24.9255 16.9911 24.9591 16.5998 24.9855C16.2192 25.0115 15.8357 24.9914 15.4539 24.9914V24.9939H15.4536Z" fill="#E6642B"/>
</g>
</g>
</svg>
