<svg width="30" height="25" viewBox="0 0 30 25" fill="none" xmlns="http://www.w3.org/2000/svg">
<mask id="mask0_4758_5358" style="mask-type:alpha" maskUnits="userSpaceOnUse" x="0" y="0" width="30" height="25">
<rect width="30" height="25" fill="#D9D9D9"/>
</mask>
<g mask="url(#mask0_4758_5358)">
<path d="M26.7951 17.1063L27.5634 11.7544L24.3352 5.03719L22.1384 5.78313L19.2732 2.73594L14.2087 0L13.1006 4.05844L12.3145 1.92781L8.42944 5.69531L6.25317 9.46406L6.15673 13.3697L4.625 12.6469L5.66695 18.9056L8.03863 22.9359L13.6298 24.8353L18.2088 25L26.1039 22.1388L28.375 16.5719L26.7951 17.1063ZM23.3795 14.1403L18.9025 14.2513L18.7409 19.245L18.4998 22.2012L14.5995 22.1606V19.3272L14.2774 14.3741L9.59713 14.5731L9.43891 9.78L16.3279 9.74L23.4596 9.54094L23.5803 10.18L23.3795 14.1403Z" fill="#FF9F00"/>
</g>
</svg>
