<svg width="30" height="25" viewBox="0 0 30 25" fill="none" xmlns="http://www.w3.org/2000/svg">
<mask id="mask0_4758_5385" style="mask-type:alpha" maskUnits="userSpaceOnUse" x="0" y="0" width="30" height="25">
<rect width="30" height="25" fill="#D9D9D9"/>
</mask>
<g mask="url(#mask0_4758_5385)">
<path d="M15.7787 17.1087C18.5975 17.1087 20.8826 14.7901 20.8826 11.9299C20.8826 9.06966 18.5975 6.75098 15.7787 6.75098C12.9599 6.75098 10.6748 9.06966 10.6748 11.9299C10.6748 14.7901 12.9599 17.1087 15.7787 17.1087Z" fill="#A6CE39"/>
<path fill-rule="evenodd" clip-rule="evenodd" d="M23.9558 15.9855C23.8328 16.0478 23.6483 15.923 23.7713 15.7983C26.354 12.7409 27.2149 9.12189 25.6775 6.43886C23.7713 3.13187 18.8519 2.44555 14.0554 4.19259C8.95153 6.0645 5.63089 9.99541 6.30734 13.9888C7.66017 22.1002 23.5253 21.4139 29.0596 20.9771C29.2441 20.9771 29.2441 21.2267 29.1212 21.2267C14.9163 24.5337 2.37179 22.537 0.527008 15.2991C-1.25628 8.31073 9.013 4.25502 13.625 3.00711C19.9587 1.3224 28.0758 1.3848 29.7361 6.0645C30.8429 9.05949 28.3832 12.928 23.9558 15.9855Z" fill="#A6CE39"/>
</g>
</svg>
