<svg width="30" height="25" viewBox="0 0 30 25" fill="none" xmlns="http://www.w3.org/2000/svg">
<mask id="mask0_4758_5353" style="mask-type:alpha" maskUnits="userSpaceOnUse" x="0" y="0" width="30" height="25">
<rect width="30" height="25" fill="#D9D9D9"/>
</mask>
<g mask="url(#mask0_4758_5353)">
<path d="M16.6147 5.75666C16.4835 5.62331 16.3702 5.63195 16.2607 5.63195C13.9155 5.63195 11.5703 5.63267 9.225 5.63195C8.40563 5.63195 7.665 5.88816 6.97575 6.28816C5.5995 7.08736 4.67063 8.19504 4.21013 9.71245C3.50813 12.024 2.72925 14.3146 1.94212 16.6017C1.19212 18.7807 2.5935 20.5222 4.80675 20.3723C5.9955 20.2912 7.19512 20.364 8.38987 20.3543C8.76187 20.3507 9.13013 20.3463 9.50213 20.2408C11.4199 19.6967 12.6083 18.4405 13.2465 16.6792C13.7164 15.3827 14.1248 14.065 14.5358 12.7497C14.6929 12.2499 14.9149 11.7642 14.9902 11.2456C14.763 11.1051 14.5365 11.1689 14.3228 11.1678C13.1509 11.1606 11.9783 11.1559 10.8056 11.1689C10.3901 11.1733 9.9015 11.0118 9.57712 11.2485C9.25912 11.4813 9.26512 11.9692 9.13837 12.3476C8.8695 13.1468 8.61038 13.9489 8.33963 14.7726C8.98988 14.9023 9.60825 14.7359 10.2221 14.8915C10.0399 15.4425 9.86437 15.942 9.7125 16.4482C9.65737 16.6302 9.6 16.7545 9.37125 16.7534C8.20312 16.748 7.03463 16.7513 5.78888 16.7513C6.0405 15.9758 6.26588 15.2724 6.49575 14.5712C7.0245 12.9591 7.55325 11.3469 8.085 9.73548C8.24812 9.2393 8.25188 9.23894 8.81363 9.23714C9.3225 9.2357 9.831 9.23714 10.3399 9.23714C11.9108 9.23714 13.482 9.24002 15.0525 9.23246C15.2265 9.23138 15.4455 9.32361 15.5363 9.03896C15.888 7.93091 16.26 6.8301 16.6147 5.75666ZM18.7897 20.3402C19.6515 20.3507 20.5403 20.484 21.3698 20.2876C23.523 19.7774 25.0639 18.5364 25.7648 16.4633C26.511 14.2538 27.228 12.0348 27.9491 9.81692C28.1321 9.25373 28.2874 8.69051 28.3166 8.08586C28.3965 6.40527 26.9258 5.3563 25.5465 5.39054C24.2648 5.42261 22.9811 5.39558 21.699 5.39918C21.4575 5.40026 21.2171 5.40026 20.976 5.46153C18.7871 6.02007 17.2883 7.28954 16.5821 9.37912C16.2854 10.2631 15.995 11.1489 15.7106 12.0366C15.1969 13.6304 14.6494 15.2155 14.1844 16.8219C13.5758 18.9241 15.0769 20.3935 16.8007 20.3431C17.4634 20.324 18.1267 20.3402 18.7897 20.3402ZM3.0135 8.0657C4.02675 6.16238 5.56988 4.86155 7.70175 4.20646C7.91925 4.13946 8.19863 4.22954 8.36025 4H26.2837C26.3235 4.09367 26.4131 4.09295 26.4986 4.11171C28.2229 4.48791 29.3205 5.4954 29.8061 7.12952C29.8973 7.43508 29.838 7.76733 30 8.05778C29.919 8.87645 29.7833 9.67965 29.4998 10.4648C29.1413 11.4586 28.8716 12.4816 28.5281 13.4805C28.0054 14.9975 27.6131 16.5556 26.9707 18.0348C25.971 19.741 24.5573 20.986 22.617 21.6461C21.9523 21.8757 21.2511 21.993 20.5447 21.9927C15.1736 21.9855 9.80175 21.9686 4.431 21.9999C2.54588 22.0107 0.4005 20.7492 0.10275 18.4733C0.084 18.3274 0.03525 18.185 0 18.0402C0.024375 17.0377 0.32325 16.0951 0.645 15.151C1.44563 12.793 2.14762 10.4039 3.01312 8.0657" fill="black"/>
<path d="M23.9454 9.12495C22.9268 9.12495 22.001 9.12303 21.0749 9.1261C20.4778 9.12764 20.48 9.1319 20.3098 9.70519C19.9261 10.9939 19.5373 12.2811 19.1555 13.5703C18.8125 14.7288 18.4751 15.8892 18.1153 17.1161C18.883 17.1161 19.5923 17.1254 20.3024 17.113C20.7096 17.1054 21.1879 17.2721 21.5062 17.0377C21.8246 16.8026 21.8107 16.2708 21.9332 15.8669C22.6004 13.6602 23.2533 11.4496 23.9454 9.12495ZM18.6787 20.9424C18.0305 20.9424 17.381 20.9247 16.7332 20.9455C15.0471 20.9993 13.5788 19.4324 14.1741 17.191C14.6289 15.4773 15.1641 13.7874 15.6669 12.0883C15.9449 11.1415 16.229 10.1968 16.5194 9.25409C17.21 7.02659 18.6761 5.67213 20.8174 5.07657C21.0529 5.01123 21.288 5.01123 21.5242 5.01008C22.7786 5.00624 24.0331 5.03507 25.2875 5.00087C26.6365 4.96436 28.0751 6.08327 27.997 7.87502C27.9687 8.52056 27.8165 9.12034 27.6375 9.72055C26.9322 12.0856 26.2309 14.4521 25.501 16.8083C24.8154 19.0189 23.3083 20.3422 21.2014 20.8863C20.3908 21.0957 19.5215 20.954 18.6787 20.9424ZM16.5509 5.39124C16.2043 6.53514 15.8401 7.71018 15.496 8.89135C15.4073 9.19489 15.1931 9.09654 15.0229 9.09731C13.4867 9.10575 11.9499 9.10192 10.4134 9.10192C9.91568 9.1023 9.41832 9.10115 8.92058 9.10307C8.3715 9.1046 8.36746 9.10537 8.20791 9.6341C7.68821 11.3524 7.17008 13.0713 6.65345 14.7907C6.42861 15.5384 6.20817 16.2877 5.96206 17.1153C7.18053 17.1153 8.32345 17.1119 9.466 17.1176C9.68974 17.1188 9.74586 16.987 9.79978 16.7922C9.94833 16.2523 10.12 15.7198 10.2982 15.1323C9.69781 14.9659 9.09297 15.1445 8.45696 15.0055C8.72178 14.1271 8.97523 13.2718 9.23822 12.4195C9.3622 12.016 9.35633 11.4957 9.66737 11.2475C9.98501 10.9951 10.4626 11.1672 10.869 11.163C12.0157 11.1514 13.1626 11.1508 14.3095 11.1611C14.5185 11.1626 14.7397 11.0942 14.9623 11.2445C14.8883 11.7974 14.6711 12.3153 14.5178 12.8483C14.1154 14.2508 13.7153 15.656 13.2564 17.0381C12.6318 18.9171 11.4698 20.2558 9.59401 20.8368C9.23015 20.949 8.86997 20.954 8.50611 20.957C7.33752 20.9678 6.16416 20.8902 5.00143 20.9762C2.83663 21.1368 1.46556 19.279 2.19951 16.9559C2.96977 14.5171 3.73123 12.0744 4.4175 9.60949C4.86829 7.99145 5.77646 6.81027 7.12331 5.95801C7.79711 5.53151 8.52152 5.2583 9.32295 5.25868H16.2047C16.3118 5.25868 16.4225 5.24947 16.5509 5.39124Z" fill="#E62727"/>
<path d="M24 9.00059C23.2877 11.314 22.6162 13.5138 21.9292 15.7098C21.8035 16.1117 21.8174 16.6409 21.4894 16.8749C21.1625 17.1082 20.6703 16.9422 20.2509 16.9499C19.5201 16.9621 18.7901 16.9529 18 16.9529C18.3703 15.732 18.7172 14.5772 19.0705 13.4243C19.4635 12.1415 19.864 10.8605 20.2584 9.57798C20.4336 9.00747 20.431 9.00326 21.0455 9.00174C21.9986 8.99868 22.9525 9.00059 24 9.00059Z" fill="black"/>
</g>
</svg>
