<svg width="24" height="24" viewBox="0 0 24 24" fill="none" xmlns="http://www.w3.org/2000/svg">
<path d="M19 13C19 12.4477 18.5523 12 18 12C17.4477 12 17 12.4477 17 13H19ZM14.4 19.6226L15.0537 18.8658L15.0399 18.8538L15.0256 18.8424L14.4 19.6226ZM13.6256 17.7198C13.1947 17.3743 12.5653 17.4436 12.2198 17.8744C11.8743 18.3053 11.9436 18.9347 12.3744 19.2802L13.6256 17.7198ZM8.49998 8.21974L8.49997 7.21974L8.49998 8.21974ZM14.6926 19.8753L15.3463 19.1185L14.6926 19.8753ZM10.0558 8.21973L10.0558 7.21973L10.0558 8.21973ZM12.0169 8.48995L15.3463 5.61386L14.0389 4.10037L10.7095 6.97647L12.0169 8.48995ZM8.49999 9.21974L10.0558 9.21973L10.0558 7.21973L8.49997 7.21974L8.49999 9.21974ZM7 14.0127V10.7197H5V14.0127H7ZM10.8 15.5127H8.5V17.5127H10.8V15.5127ZM17 14.5V18.3618H19V14.5H17ZM17 6.3706V9H19V6.3706H17ZM17 13V14.5H19V13H17ZM15.3463 19.1185L15.0537 18.8658L13.7463 20.3793L14.0388 20.632L15.3463 19.1185ZM15.0256 18.8424L13.6256 17.7198L12.3744 19.2802L13.7744 20.4027L15.0256 18.8424ZM5 14.0127C5 15.9457 6.567 17.5127 8.5 17.5127V15.5127C7.67157 15.5127 7 14.8411 7 14.0127H5ZM8.49997 7.21974C6.56699 7.21975 5 8.78675 5 10.7197H7C7 9.89132 7.67157 9.21974 8.49999 9.21974L8.49997 7.21974ZM15.3463 5.61386C15.9942 5.05418 17 5.51444 17 6.3706H19C19 3.80211 15.9825 2.42131 14.0389 4.10037L15.3463 5.61386ZM17 18.3618C17 19.218 15.9942 19.6782 15.3463 19.1185L14.0388 20.632C15.9825 22.3111 19 20.9303 19 18.3618H17ZM10.7095 6.97647C10.5278 7.13338 10.2958 7.21972 10.0558 7.21973L10.0558 9.21973C10.7759 9.21972 11.472 8.9607 12.0169 8.48995L10.7095 6.97647Z" fill="white"/>
<path d="M22 5L7 20" stroke="white" stroke-width="2" stroke-linecap="round" stroke-linejoin="round"/>
</svg>
